<?xml version="1.0" encoding="UTF-8" standalone="no"?>
<!-- Created with Inkscape (http://www.inkscape.org/) -->

<svg
   width="18.182123mm"
   height="23.928415mm"
   viewBox="0 0 68.719841 90.438105"
   version="1.1"
   id="svg5"
   xml:space="preserve"
   sodipodi:docname="notbessy.svg"
   inkscape:version="1.2.1 (9c6d41e410, 2022-07-14, custom)"
   inkscape:export-filename="notbessy.png"
   inkscape:export-xdpi="300"
   inkscape:export-ydpi="300"
   xmlns:inkscape="http://www.inkscape.org/namespaces/inkscape"
   xmlns:sodipodi="http://sodipodi.sourceforge.net/DTD/sodipodi-0.dtd"
   xmlns="http://www.w3.org/2000/svg"
   xmlns:svg="http://www.w3.org/2000/svg"><sodipodi:namedview
     id="namedview7"
     pagecolor="#505050"
     bordercolor="#eeeeee"
     borderopacity="1"
     inkscape:showpageshadow="0"
     inkscape:pageopacity="0"
     inkscape:pagecheckerboard="0"
     inkscape:deskcolor="#505050"
     inkscape:document-units="mm"
     showgrid="false"
     inkscape:zoom="2.0000001"
     inkscape:cx="85.249998"
     inkscape:cy="3.7499999"
     inkscape:window-width="1880"
     inkscape:window-height="1001"
     inkscape:window-x="20"
     inkscape:window-y="59"
     inkscape:window-maximized="1"
     inkscape:current-layer="g40750"
     showguides="false" /><defs
     id="defs2" /><g
     inkscape:groupmode="layer"
     id="layer4"
     inkscape:label="BESSY"
     transform="translate(-65.236938,-20.854085)"><g
       id="g40884"
       inkscape:label="cores"><path
         style="fill:#a52a2a;fill-opacity:1;stroke:none;stroke-width:2.5;stroke-linecap:round;stroke-linejoin:round;stroke-dasharray:none;stroke-dashoffset:0;stroke-opacity:1;paint-order:stroke fill markers"
         d="m 128.56987,45.946925 c -0.15691,1.291029 0.21361,2.670324 0,3.951939 -0.43648,2.618873 -3.44586,5.596366 -4.9952,1.72302 -1.00609,-2.515228 2.31083,-8.347425 4.9952,-5.674959 z"
         id="path40958" /><path
         style="fill:#dcdcdc;fill-opacity:1;stroke:none;stroke-width:2.5;stroke-linecap:round;stroke-linejoin:round;stroke-dasharray:none;stroke-dashoffset:0;stroke-opacity:1;paint-order:stroke fill markers"
         d="m 130.06603,47.4931 c -0.38991,4.840457 -1.46059,9.745316 -2.71842,14.454558 -0.37048,1.387046 -1.06648,2.863238 -0.82129,4.34336 0.17339,1.046664 0.94274,2.249491 1.28346,3.20401 2.82991,7.367708 -3.58456,14.419636 -7.70215,19.713675 -1.87697,2.413252 -3.06707,5.751605 -5.0473,7.731898 -1.54208,1.542122 -4.18246,2.224362 -6.08894,3.177609 -2.0934,1.04669 -3.89894,3.55926 -6.14823,4.29402 -11.43662,3.7359 -26.137592,0.94539 -32.898671,-9.196226 -3.159966,-4.739949 -5.014488,-18.623869 -3.189639,-24.121651 0.794652,-2.394076 6.86799,-11.056643 6.501267,-12.885679 -0.2773,-1.383039 -1.523583,-2.177913 -1.848236,-3.462204 -3.835955,-7.300045 0.647942,-3.889314 4.051725,-3.889314 1.436806,0 -1.090302,-4.894307 1.624222,-3.989466 2.025818,0.675272 12.270907,6.780099 13.578877,6.134297 0.919416,-0.453957 2.68431,-6.280072 3.506693,-6.067814 5.441726,1.404515 2.320715,7.741567 10.842332,4.901027 1.80389,-0.601297 4.02168,-1.370029 5.39169,-2.740036 5.5116,-5.511601 5.82021,-20.40051 15.01246,-22.031387 8.97672,-1.592635 5.33326,5.392779 5.33326,10.805054 0,4.143313 -3.97088,-0.440869 -6.41665,2.004896 -4.27916,4.279156 4.55736,3.865011 4.79592,5.939636 0.0627,0.545326 -3.94725,-1.403079 -4.89232,0.962634 -0.75866,1.899063 -1.06928,8.03951 2.68741,5.535051 1.95224,-1.301494 0.8139,-3.96488 3.16253,-4.817948 z"
         id="path40754" /><path
         style="fill:#f0e68c;fill-opacity:1;stroke:none;stroke-width:2.5;stroke-linecap:round;stroke-linejoin:round;stroke-dasharray:none;stroke-dashoffset:0;stroke-opacity:1;paint-order:stroke fill markers"
         d="m 123.62879,42.740568 c 0.9089,0.840784 2.04955,1.328711 3.10019,1.929074 10.18936,5.822491 2.49461,-7.642186 -1.26894,-3.878632 -0.87801,0.878002 -1.60326,0.894199 -1.83125,1.949558 z"
         id="path40886" /><path
         style="fill:#a52a2a;fill-opacity:1;stroke:none;stroke-width:2.5;stroke-linecap:round;stroke-linejoin:round;stroke-dasharray:none;stroke-dashoffset:0;stroke-opacity:1;paint-order:stroke fill markers"
         d="m 128.25042,25.986828 c -0.8557,-0.885473 -0.56657,-2.648605 -1.18379,-3.639601 -0.0393,-0.06306 -0.54747,1.493022 -1.15898,2.547192 -0.22037,0.379883 -6.16633,-2.747393 -3.97985,1.933056 0.71338,1.527086 5.1049,-0.833675 6.32262,-0.840647 z"
         id="path41214" /></g><g
       id="g40750"
       inkscape:label="lineart"><path
         style="fill:none;fill-opacity:1;stroke:#000000;stroke-width:2.5;stroke-linecap:round;stroke-linejoin:round;stroke-dasharray:none;stroke-dashoffset:0;stroke-opacity:1;paint-order:stroke fill markers"
         d="m 126.35133,38.927957 c 3.18168,0.292689 5.71723,5.140124 6.3555,7.894114 -3.77232,-1.583349 -13.35626,-2.057044 -6.3555,-7.894114 z"
         id="path25441" /><path
         style="fill:none;fill-opacity:1;stroke:#000000;stroke-width:2.5;stroke-linecap:round;stroke-linejoin:round;stroke-dasharray:none;stroke-dashoffset:0;stroke-opacity:1;paint-order:stroke fill markers"
         d="m 127.92476,45.709292 c 0.78361,13.49971 -7.22619,8.464266 -2.85142,-0.96244"
         id="path25806" /><path
         style="fill:none;fill-opacity:1;stroke:#000000;stroke-width:2.5;stroke-linecap:round;stroke-linejoin:round;stroke-dasharray:none;stroke-dashoffset:0;stroke-opacity:1;paint-order:stroke fill markers"
         d="m 125.3644,74.160434 c -0.79367,-9.366429 3.75409,-17.942238 4.67056,-27.106972"
         id="path26534" /><path
         style="fill:none;fill-opacity:1;stroke:#000000;stroke-width:2.5;stroke-linecap:round;stroke-linejoin:round;stroke-dasharray:none;stroke-dashoffset:0;stroke-opacity:1;paint-order:stroke fill markers"
         d="m 130.80113,41.469451 c -0.43615,-4.133948 1.56715,-9.926382 0.20704,-14.006696 -0.41509,-1.245287 -3.14699,-1.08316 -4.06827,-0.951549 -2.66626,0.380895 -3.90298,0.867859 -5.79078,2.755665 -1.42014,1.420137 -1.57035,3.294888 -2.56326,4.949747 -5.61086,9.351434 -5.10971,15.046205 -16.6111,18.644312"
         id="path27262"
         sodipodi:nodetypes="cssscc" /><path
         style="fill:none;fill-opacity:1;stroke:#000000;stroke-width:2.5;stroke-linecap:round;stroke-linejoin:round;stroke-dasharray:none;stroke-dashoffset:0;stroke-opacity:1;paint-order:stroke fill markers"
         d="m 122.42253,32.16119 c 1.32343,-0.904319 2.43487,-1.199977 3.08913,0.429499"
         id="path28718" /><path
         style="fill:none;fill-opacity:1;stroke:#000000;stroke-width:2.5;stroke-linecap:round;stroke-linejoin:round;stroke-dasharray:none;stroke-dashoffset:0;stroke-opacity:1;paint-order:stroke fill markers"
         d="m 127.22778,31.640967 c 0.76778,-0.539014 1.52653,-0.512565 2.30293,-0.383999"
         id="path29446" /><path
         style="fill:none;fill-opacity:1;stroke:#000000;stroke-width:2.5;stroke-linecap:round;stroke-linejoin:round;stroke-dasharray:none;stroke-dashoffset:0;stroke-opacity:1;paint-order:stroke fill markers"
         d="m 127.18253,35.349072 c -0.0351,0.187745 -0.021,0.381724 -0.021,0.572434"
         id="path31630" /><path
         style="fill:none;fill-opacity:1;stroke:#000000;stroke-width:2.5;stroke-linecap:round;stroke-linejoin:round;stroke-dasharray:none;stroke-dashoffset:0;stroke-opacity:1;paint-order:stroke fill markers"
         d="m 123.38794,35.353073 c -0.0129,0.201187 -0.0259,0.402373 -0.0388,0.603559"
         id="path32358" /><path
         style="fill:none;fill-opacity:1;stroke:#000000;stroke-width:2.5;stroke-linecap:round;stroke-linejoin:round;stroke-dasharray:none;stroke-dashoffset:0;stroke-opacity:1;paint-order:stroke fill markers"
         d="m 127.98326,25.684331 c -0.55849,-0.604406 -0.51708,-3.06569 -1.538,-3.589953 -0.50166,-0.257613 -0.005,3.4914 -0.21397,3.756189 -0.38612,0.489695 -5.55773,-6.634497 -4.32434,0.149193 0.10599,0.582927 0.21397,1.025411 0.26462,1.635549"
         id="path33086" /><path
         style="fill:none;fill-opacity:1;stroke:#000000;stroke-width:2.5;stroke-linecap:round;stroke-linejoin:round;stroke-dasharray:none;stroke-dashoffset:0;stroke-opacity:1;paint-order:stroke fill markers"
         d="m 126.02355,66.099198 c 6.41924,7.847357 0.23028,14.930879 -4.24251,21.640038 -1.72243,2.583633 -3.56792,6.287007 -5.95706,8.277955 -2.89455,2.412128 -5.8769,3.89327 -9.32554,5.359619 -8.966232,7.80174 -27.065782,4.59537 -34.701523,-3.832995 -8.014589,-8.846542 -6.353688,-28.946881 0.970093,-37.289309"
         id="path33814" /><path
         style="fill:none;fill-opacity:1;stroke:#000000;stroke-width:2.5;stroke-linecap:round;stroke-linejoin:round;stroke-dasharray:none;stroke-dashoffset:0;stroke-opacity:1;paint-order:stroke fill markers"
         d="M 73.496295,59.180537 C 69.434772,52.950127 68.452377,47.209998 74.715667,51.47756"
         id="path34542"
         sodipodi:nodetypes="cc" /><path
         style="fill:none;fill-opacity:1;stroke:#000000;stroke-width:2.5;stroke-linecap:round;stroke-linejoin:round;stroke-dasharray:none;stroke-dashoffset:0;stroke-opacity:1;paint-order:stroke fill markers"
         d="m 75.872015,51.163435 c 1.339075,-0.718774 -1.168881,-3.845486 -0.274614,-4.663563 0.661914,-0.605521 9.317614,4.449392 10.327074,5.055069 0.479961,0.287977 3.011195,2.776214 3.087005,2.674751 1.187515,-1.589359 2.583393,-3.155224 3.626927,-4.893389 0.511355,-0.85174 0.324976,-3.227079 1.187238,-2.733673 4.058508,2.322369 6.548865,7.560286 10.753435,9.962895 0.70282,2.08919 1.12655,4.242011 1.65851,6.369864"
         id="path35270" /><path
         style="fill:none;fill-opacity:1;stroke:#000000;stroke-width:2.5;stroke-linecap:round;stroke-linejoin:round;stroke-dasharray:none;stroke-dashoffset:0;stroke-opacity:1;paint-order:stroke fill markers"
         d="m 119.26837,57.247244 c -2.55763,0.881156 -4.61281,2.046048 -5.84313,4.5067 -2.1425,4.284995 2.00458,8.021994 1.50422,12.024879 -0.21209,1.696718 -6.39838,5.474369 -5.12652,7.335122 0.40286,0.589397 3.76222,-1.948515 3.77118,-1.859064 0.0798,0.796706 -2.58084,4.55311 -1.52551,5.250784 0.75482,0.499007 2.44452,0.368361 3.22333,0.245064 6.65093,-1.052943 6.41187,-11.30555 5.41023,-15.979383"
         id="path35998" /><path
         style="fill:none;fill-opacity:1;stroke:#000000;stroke-width:2.5;stroke-linecap:round;stroke-linejoin:round;stroke-dasharray:none;stroke-dashoffset:0;stroke-opacity:1;paint-order:stroke fill markers"
         d="m 108.33278,91.562005 c 6.4423,2.394167 9.50533,9.716065 9.50533,16.231235 -0.13801,0.95557 -0.78054,1.55945 -1.38445,2.24963 1.5016,-3.03836 4.49959,-3.73271 7.06199,-5.52639"
         id="path36726" /><path
         style="fill:none;fill-opacity:1;stroke:#000000;stroke-width:2.5;stroke-linecap:round;stroke-linejoin:round;stroke-dasharray:none;stroke-dashoffset:0;stroke-opacity:1;paint-order:stroke fill markers"
         d="m 118.86665,107.63161 c 0.81777,-1.39277 1.56618,-2.79239 1.76206,-4.36384"
         id="path37454" /><path
         style="fill:none;fill-opacity:1;stroke:#000000;stroke-width:2.5;stroke-linecap:round;stroke-linejoin:round;stroke-dasharray:none;stroke-dashoffset:0;stroke-opacity:1;paint-order:stroke fill markers"
         d="m 79.716303,103.33839 c 0.968643,3.07825 0.365755,2.24335 -1.249316,4.13142"
         id="path38182"
         sodipodi:nodetypes="cc" /><path
         style="fill:none;fill-opacity:1;stroke:#000000;stroke-width:2.5;stroke-linecap:round;stroke-linejoin:round;stroke-dasharray:none;stroke-dashoffset:0;stroke-opacity:1;paint-order:stroke fill markers"
         d="m 80.174787,105.86509 c 1.684222,-0.30516 3.536852,-0.006 5.121043,-0.58171"
         id="path38910"
         sodipodi:nodetypes="cc" /><path
         style="fill:none;fill-opacity:1;stroke:#000000;stroke-width:2.5;stroke-linecap:round;stroke-linejoin:round;stroke-dasharray:none;stroke-dashoffset:0;stroke-opacity:1;paint-order:stroke fill markers"
         d="m 83.706102,79.680461 c 1.640524,0.753696 2.334386,2.054731 3.608701,3.111236"
         id="path39638" /><path
         style="fill:none;fill-opacity:1;stroke:#000000;stroke-width:2.5;stroke-linecap:round;stroke-linejoin:round;stroke-dasharray:none;stroke-dashoffset:0;stroke-opacity:1;paint-order:stroke fill markers"
         d="m 86.284567,78.603098 c -1.551483,1.559207 -2.144615,3.351453 -2.566178,5.434137"
         id="path40366" /><path
         style="display:none;fill:none;stroke:#b22222;stroke-width:2.19242;stroke-linecap:round;stroke-linejoin:round;paint-order:stroke fill markers"
         d="m 46.36295,20.064072 c 28.805601,34.228981 68.48569,63.876595 93.73752,99.229158"
         id="path1015" /><path
         style="display:none;fill:none;stroke:#b22222;stroke-width:2.19242;stroke-linecap:round;stroke-linejoin:round;paint-order:stroke fill markers"
         d="M 147.32746,24.360468 C 109.70124,58.093244 65.752138,87.95705 32.218646,120.96484"
         id="path1019" /></g></g></svg>
