<?xml version="1.0" encoding="UTF-8" standalone="no"?>
<!-- Created with Inkscape (http://www.inkscape.org/) -->

<svg
   width="60.277157mm"
   height="28.62734mm"
   viewBox="0 0 227.81919 108.19782"
   version="1.1"
   id="svg5"
   xml:space="preserve"
   sodipodi:docname="notarma.svg"
   inkscape:version="1.2.1 (9c6d41e410, 2022-07-14, custom)"
   inkscape:export-filename="notarma.png"
   inkscape:export-xdpi="300"
   inkscape:export-ydpi="300"
   xmlns:inkscape="http://www.inkscape.org/namespaces/inkscape"
   xmlns:sodipodi="http://sodipodi.sourceforge.net/DTD/sodipodi-0.dtd"
   xmlns="http://www.w3.org/2000/svg"
   xmlns:svg="http://www.w3.org/2000/svg"><sodipodi:namedview
     id="namedview7"
     pagecolor="#505050"
     bordercolor="#eeeeee"
     borderopacity="1"
     inkscape:showpageshadow="0"
     inkscape:pageopacity="0"
     inkscape:pagecheckerboard="0"
     inkscape:deskcolor="#505050"
     inkscape:document-units="mm"
     showgrid="false"
     inkscape:zoom="2.8284271"
     inkscape:cx="48.967145"
     inkscape:cy="52.679455"
     inkscape:window-width="1880"
     inkscape:window-height="1001"
     inkscape:window-x="20"
     inkscape:window-y="59"
     inkscape:window-maximized="1"
     inkscape:current-layer="layer5"
     showguides="false"><sodipodi:guide
       position="-1.6585001,-59.669025"
       orientation="0,221.70443"
       id="guide37242"
       inkscape:locked="false" /><sodipodi:guide
       position="220.04594,-59.669025"
       orientation="211.84764,0"
       id="guide37244"
       inkscape:locked="false" /><sodipodi:guide
       position="220.04594,-271.51667"
       orientation="0,-221.70443"
       id="guide37246"
       inkscape:locked="false" /><sodipodi:guide
       position="-1.6585001,-271.51667"
       orientation="-211.84764,0"
       id="guide37248"
       inkscape:locked="false" /></sodipodi:namedview><defs
     id="defs2" /><g
     inkscape:groupmode="layer"
     id="layer5"
     inkscape:label="ARMA"
     transform="translate(-1760.5795,-1170.3299)"><g
       id="g34661"
       inkscape:label="color"><path
         style="fill:#c7c6b8;fill-opacity:1;stroke:none;stroke-width:2.5;stroke-linecap:round;stroke-linejoin:round;stroke-dasharray:none;stroke-opacity:1;paint-order:fill markers stroke"
         d="m 1914.3377,1228.6791 c 0.226,2.8304 -5.1529,7.6428 -8.0126,6.0971 -2.3747,-1.2836 -7.9795,-7.414 -4.2017,-9.382 1.0317,-0.5375 1.6439,2.3656 2.0729,2.9019 1.2929,1.616 3.5923,1.4958 5.441,1.4958 1.6712,0 3.2929,-1.8817 4.7004,-1.1128 z"
         id="path34655"
         transform="translate(-4.9249277e-6)" /><path
         style="display:inline;fill:#c7c6b8;fill-opacity:1;stroke:none;stroke-width:2.5;stroke-linecap:round;stroke-linejoin:round;stroke-dasharray:none;stroke-opacity:1;paint-order:fill markers stroke"
         d="m 1923.6633,1210.594 c -0.2221,4.6087 -3.4392,2.1169 -5.6232,3.2239 -0.5805,0.2942 -1.2555,1.935 -1.7638,2.4434 -0.6463,0.6463 -1.6208,11.6741 -2.4741,12.8052 -0.626,0.8299 -1.5267,-1.5352 -2.5224,-1.8339 -2.1506,-0.6452 -4.2834,-1.2284 -6.4882,-1.5958 -7.4128,-1.2355 -14.3602,-2.6234 -21.5603,-5.0156 -4.991,-1.6581 -9.2005,-4.2093 -14.0347,-5.7366 -24.3535,-6.8603 -48.8208,-13.7646 -73.1953,-20.5702 -4.0884,-1.1415 -8.4999,-1.6022 -12.4201,-2.9089 -2.2594,-2.9804 -12.8631,-0.6369 -14.5953,-3.8776 -0.784,-1.4668 0.8485,-4.1197 0.1768,-5.4632 -2.2878,-4.5754 -7.1673,2.1148 -6.6003,-7.0872 0.05,-0.8125 0.1144,-2.9991 0.901,-3.5557 1.6575,-1.1731 8.5178,2.4866 10.2006,3.1035 13.8912,5.0923 28.0424,7.9719 42.2597,11.1314 26.1051,5.5433 50.7297,16.2209 77.017,20.6022 2.4594,0.5611 4.9838,0.7877 7.4657,1.234 5.3047,0.9538 10.1231,2.5444 15.5738,3.3231 2.3463,0.3352 6.6601,-3.0846 7.6831,-0.222 z"
         id="path32588"
         transform="translate(-4.9249277e-6)"
         sodipodi:nodetypes="csccccccscscccccccsc" /><path
         style="fill:#95591e;fill-opacity:1;stroke:none;stroke-width:2.5;stroke-linecap:round;stroke-linejoin:round;stroke-dasharray:none;stroke-opacity:1;paint-order:fill markers stroke"
         d="m 1986.5821,1253.7902 c -0.1878,4.4375 -13.1863,24.5061 -16.4433,22.888 -6.5836,-3.2707 -11.1276,-9.7251 -16.5798,-14.6481 -1.7686,-1.5969 -4.233,-2.5918 -5.7389,-4.4742 -2.0956,-2.6195 -3.9989,-5.4151 -6.3926,-7.8173 -3.8195,-3.8332 -7.8143,-5.9074 -13.1398,-6.5 -0.5565,-0.062 -2.6136,0.4271 -3.1134,0.084 -3.8076,-2.6127 -1.5807,-5.7135 -3.4248,-9.4017 -1.5394,-3.0789 -6.8581,-4.0675 -7.6112,-6.3267 -0.3713,-1.1137 1.0606,-3.5157 1.0606,-5.0742 1.2566,-1.8112 -0.2873,-7.8371 1.9004,-8.9916 3.6837,-1.944 11.356,9.5897 12.3264,12.0155 1.4237,3.5593 0.8014,6.507 7.0699,4.9398 6.824,-1.706 32.4567,12.6363 38.8302,16.4604 2.8506,1.7103 8.005,6.6882 11.2563,6.8461 z"
         id="path21412"
         transform="translate(-4.9249277e-6)"
         inkscape:label="path21412" /></g><g
       id="g21046"
       inkscape:label="lineart"><path
         style="fill:none;fill-opacity:1;stroke:#000000;stroke-width:2.5;stroke-linecap:round;stroke-linejoin:round;stroke-dasharray:none;stroke-opacity:1;paint-order:fill markers stroke"
         d="m 1987.1487,1253.4779 c -1.7972,6.3367 -5.7956,11.6265 -9.3692,16.9868 -1.8606,2.7909 -3.9672,5.1587 -6.4643,6.7216 -2.5067,1.5688 -33.2917,-30.6498 -36.8156,-32.8522 -2.9344,-1.834 -7.4604,-0.022 -10.688,-1.4142 -0.1129,-0.049 -1.3604,-7.1941 -2.2168,-8.4276 -3.2191,-4.6368 -7.2593,-6.4341 -12.37,-8.1401 -8.6602,-0.6419 -16.7138,-4.1979 -25.2696,-5.9084 -1.2574,-0.2514 -9.3447,-1.5228 -9.942,-2.5545 -0.2211,-0.3819 0.6761,-2.0608 0.8402,-2.4711 0.8828,-2.207 4.9996,-13.3813 5.8,-13.2924 3.0938,0.3438 6.3137,1.6938 9.3304,2.4958 4.1907,1.1142 8.5287,1.6433 12.6669,3.0208 3.4109,1.1353 6.5804,2.7607 10.0198,3.4907 5.135,0.9918 12.8908,5.881 14.8229,11.0333 1.0588,2.8235 0.7142,6.8471 3.7171,8.563 3.4963,1.9979 10.8815,-1.3212 17.1039,1.5106 1.5937,0.7252 14.7249,8.0639 15.2299,8.0639 7.1013,5.4433 16.5277,7.9475 23.6044,13.174 z"
         id="path9386"
         transform="translate(-4.9249277e-6)" /><path
         style="fill:none;fill-opacity:1;stroke:#000000;stroke-width:2.5;stroke-linecap:round;stroke-linejoin:round;stroke-dasharray:none;stroke-opacity:1;paint-order:fill markers stroke"
         d="m 1921.0971,1213.8302 c 6.2357,-5.8677 -1.8176,-4.6591 -5.3411,-2.353"
         id="path10479" /><path
         style="fill:none;fill-opacity:1;stroke:#000000;stroke-width:2.5;stroke-linecap:round;stroke-linejoin:round;stroke-dasharray:none;stroke-opacity:1;paint-order:fill markers stroke"
         d="m 1914.378,1229.0367 c -3.944,8.3904 -13.3338,4.8211 -14.2024,-3.2993"
         id="path11207" /><path
         style="fill:none;fill-opacity:1;stroke:#000000;stroke-width:2.5;stroke-linecap:round;stroke-linejoin:round;stroke-dasharray:none;stroke-opacity:1;paint-order:fill markers stroke"
         d="m 1912.4403,1228.4313 c -1.2047,2.2098 -6.4865,2.2557 -8.0714,0.4067 -0.5246,-0.612 -1.1074,-1.9912 -1.2244,-2.7274"
         id="path12663"
         sodipodi:nodetypes="csc" /><path
         style="fill:none;fill-opacity:1;stroke:#000000;stroke-width:2.5;stroke-linecap:round;stroke-linejoin:round;stroke-dasharray:none;stroke-opacity:1;paint-order:fill markers stroke"
         d="m 1907.4817,1227.1991 c -0.2924,0.7057 -0.4559,1.4366 -0.732,2.141"
         id="path13391" /><path
         style="fill:none;fill-opacity:1;stroke:#000000;stroke-width:2.5;stroke-linecap:round;stroke-linejoin:round;stroke-dasharray:none;stroke-opacity:1;paint-order:fill markers stroke"
         d="m 1913.886,1227.4911 c 0.6376,-4.6125 3.2553,-9.0232 3.2553,-13.7561"
         id="path14847" /><path
         style="fill:none;fill-opacity:1;stroke:#000000;stroke-width:2.5;stroke-linecap:round;stroke-linejoin:round;stroke-dasharray:none;stroke-opacity:1;paint-order:fill markers stroke"
         d="m 1901.1255,1212.8584 c 0.3777,8.4066 -7.1206,2.7514 -12.6277,2.2508 -0.5712,-0.052 -5.428,-0.6764 -5.4395,-1.1421 -0.023,-0.9511 0.9131,-3.9317 1.4323,-4.7653 0.5154,-0.8276 1.7214,0.049 2.6769,0.2421 2.5693,0.5201 4.9263,1.2612 7.5568,1.5094 2.1081,0.1989 4.5486,1.0813 6.4012,1.9051 z"
         id="path15575"
         sodipodi:nodetypes="cccccsc" /><path
         style="fill:none;fill-opacity:1;stroke:#000000;stroke-width:2.5;stroke-linecap:round;stroke-linejoin:round;stroke-dasharray:none;stroke-opacity:1;paint-order:fill markers stroke"
         d="m 1898.3073,1212.1033 c -0.6972,1.4754 -0.8387,2.9719 -0.8756,3.9658"
         id="path16303"
         sodipodi:nodetypes="cc" /><path
         style="fill:none;fill-opacity:1;stroke:#000000;stroke-width:2.5;stroke-linecap:round;stroke-linejoin:round;stroke-dasharray:none;stroke-opacity:1;paint-order:fill markers stroke"
         d="m 1976.5539,1264.5796 c 1.4214,-0.6297 1.3515,-2.0323 1.7468,-3.3499 2.4004,-8.0014 -8.1641,-9.1176 -11.8145,-13.9847"
         id="path17757" /><path
         style="fill:none;fill-opacity:1;stroke:#000000;stroke-width:2.5;stroke-linecap:round;stroke-linejoin:round;stroke-dasharray:none;stroke-opacity:1;paint-order:fill markers stroke"
         d="m 1922.9406,1224.5569 c 5.0572,3.784 -1.6585,-7.8714 -4.7576,-4.778 -0.9866,0.9847 4.9444,10.3324 5.6366,11.6013 11.3372,1.3532 16.6012,3.8525 24.6806,8.1819 3.0135,1.6147 4.9356,2.6786 8.9297,5.2282 4.6611,2.5376 7.8812,5.8833 10.8097,9.9832 1.237,1.7318 5.7045,5.0367 4.4198,7.46 -0.2804,0.5288 -1.5554,0.2549 -2.0127,0.1533 -6.0801,-1.3512 -5.9968,-9.6416 -2.5087,-4.1662"
         id="path18485"
         sodipodi:nodetypes="cccccsccc" /><path
         style="fill:none;fill-opacity:1;stroke:#000000;stroke-width:2.5;stroke-linecap:round;stroke-linejoin:round;stroke-dasharray:none;stroke-opacity:1;paint-order:fill markers stroke"
         d="m 1969.8053,1266.5902 c -11.7175,-8.1059 -18.214,-22.1754 -31.1296,-28.6332 -1.6782,-0.8391 -8.0617,-3.8171 -9.4557,-1.7261 -0.8852,1.3277 0.625,2.5683 1.5026,3.2704 8.982,6.4465 11.9077,2.8254 5.9807,0.4546"
         id="path19213"
         sodipodi:nodetypes="csccc" /><path
         style="fill:none;fill-opacity:1;stroke:#000000;stroke-width:2.5;stroke-linecap:round;stroke-linejoin:round;stroke-dasharray:none;stroke-opacity:1;paint-order:fill markers stroke"
         d="m 1880.5781,1202.0516 c -18.7022,-4.9685 -38.0383,-8.0689 -56.0694,-14.0468 -7.561,-2.5068 -15.5772,-4.521 -23.2424,-6.4373 -12.4863,-3.1216 -24.9729,-6.2499 -37.3527,-9.9877 0.3706,2.8662 -2.0841,4.8811 -2.0841,7.6057 28.7114,8.7744 58.5539,14.302 87.652,22.2445 6.7214,1.8346 20.7278,6.4805 27.6262,7.9547"
         id="path19941"
         sodipodi:nodetypes="ccsccsc" /><path
         style="fill:none;fill-opacity:1;stroke:#000000;stroke-width:2.5;stroke-linecap:round;stroke-linejoin:round;stroke-dasharray:none;stroke-opacity:1;paint-order:fill markers stroke"
         d="m 1874.3395,1215.9908 c -13.9158,-4.0198 -25.8138,-7.1941 -40.4106,-11.0086 -6.8868,-1.1493 -14.5483,-3.0607 -21.2904,-4.8994 -11.1492,-3.0407 -21.9428,-6.9489 -33.2098,-9.5489 -8.1519,-3.2233 -13.3538,0.059 -10.7665,-8.2449"
         id="path20669"
         sodipodi:nodetypes="ccccc" /></g><path
       style="fill:none;fill-opacity:1;stroke:#b22222;stroke-width:2.5;stroke-linecap:round;stroke-linejoin:round;stroke-dasharray:none;stroke-opacity:1;paint-order:fill markers stroke"
       d="m 1761.5205,1170.8311 c 74.9614,35.8752 155.8679,65.355 226.6696,107.3833"
       id="path37339" /><path
       style="fill:none;fill-opacity:1;stroke:#b22222;stroke-width:2.5;stroke-linecap:round;stroke-linejoin:round;stroke-dasharray:none;stroke-opacity:1;paint-order:fill markers stroke"
       d="m 1988.3958,1171.1984 c -21.9911,10.0555 -39.6108,26.5074 -61.5894,36.7749 -18.8948,8.8269 -40.3033,10.5522 -59.6716,17.8153 -37.2145,13.9554 -72.211,36.6466 -107.8943,52.5002"
       id="path37404" /></g></svg>
