<?xml version="1.0" encoding="UTF-8" standalone="no"?>
<!-- Created with Inkscape (http://www.inkscape.org/) -->

<svg
   width="22.035936mm"
   height="24.413738mm"
   viewBox="0 0 83.285435 92.272396"
   version="1.1"
   id="svg5"
   xml:space="preserve"
   sodipodi:docname="perry.svg"
   inkscape:version="1.2.1 (9c6d41e410, 2022-07-14, custom)"
   inkscape:export-filename="perry.png"
   inkscape:export-xdpi="300"
   inkscape:export-ydpi="300"
   xmlns:inkscape="http://www.inkscape.org/namespaces/inkscape"
   xmlns:sodipodi="http://sodipodi.sourceforge.net/DTD/sodipodi-0.dtd"
   xmlns="http://www.w3.org/2000/svg"
   xmlns:svg="http://www.w3.org/2000/svg"><sodipodi:namedview
     id="namedview7"
     pagecolor="#505050"
     bordercolor="#eeeeee"
     borderopacity="1"
     inkscape:showpageshadow="0"
     inkscape:pageopacity="0"
     inkscape:pagecheckerboard="0"
     inkscape:deskcolor="#505050"
     inkscape:document-units="mm"
     showgrid="false"
     inkscape:zoom="5.6568542"
     inkscape:cx="-2.032932"
     inkscape:cy="32.615301"
     inkscape:window-width="932"
     inkscape:window-height="1001"
     inkscape:window-x="968"
     inkscape:window-y="59"
     inkscape:window-maximized="1"
     inkscape:current-layer="layer1"
     showguides="false" /><defs
     id="defs2" /><g
     inkscape:groupmode="layer"
     id="layer1"
     inkscape:label="PERRY"
     transform="translate(-37.636639,146.36366)"><g
       id="g20390"
       inkscape:label="cor"
       style="display:inline;fill:#008080"><path
         style="fill:#008080;stroke:none;stroke-width:2.5;stroke-linecap:round;stroke-linejoin:round;stroke-dasharray:none;stroke-opacity:1;paint-order:stroke fill markers"
         d="m 107.12456,-67.874571 c -0.43337,0.60865 2.19727,4.340194 1.91094,4.882048 -0.16227,0.307061 -5.57571,0.167193 -6.20901,0.196376 -1.39634,0.06435 -7.259361,1.956903 -7.735534,1.804415 -1.112048,-0.356118 -1.232265,-4.060006 -3.228207,-4.512716 -1.502381,-0.340763 -2.02503,0.680457 -2.859748,1.649622 -0.114386,0.13281 -1.694316,0.06493 -2.062036,0.1875 -1.132125,0.377375 1.318361,3.780413 1.73726,4.227325 0.397952,0.424565 3.805433,2.375337 1.96121,3.297448 -1.030587,0.515294 -2.633652,0.06996 -3.778337,0.313111 -5.456959,1.093924 -11.397739,0.93915 -16.954333,0.514062 -1.094573,-0.08374 -2.184589,-0.734389 -3.280935,-0.942785 -1.197545,-0.227632 -4.340276,0.09865 -5.106183,-1.050211 -0.984591,-1.476888 -1.388797,-6.503391 -1.821036,-8.571216 -0.346607,-1.049955 -1.090199,-1.984065 -1.291604,-3.111342 -0.457747,-2.562043 0.148951,-5.227489 0.277077,-7.786643 0.147596,-2.948053 -0.089,-5.85999 0.631551,-8.725178 0.08799,-1.71284 -0.226221,-3.402538 -0.156868,-5.11677 0.07215,-1.783304 0.792179,-3.42881 0.899151,-5.175087 0.193876,-3.164948 -0.401903,-6.336978 -0.601341,-9.490888 0.07529,-0.79811 -0.09589,-1.59435 -0.03993,-2.39163 0.09605,-1.36839 0.885308,-2.59427 0.999273,-3.87634 0.217047,-2.44169 -0.353908,-6.84318 0.433283,-8.89 0.301739,-0.78457 1.331304,-1.55448 2.070179,-1.89925 1.703827,-0.79502 4.117838,-1.43133 5.997967,-1.30496 2.511572,0.16881 5.997079,0.90233 8.413563,-0.30401 0.575989,-0.18057 1.182433,-0.29186 1.78079,-0.35961 0.807211,-0.0914 1.881529,-0.27267 2.691885,-0.051 1.196792,0.32738 2.326708,1.2398 3.569542,0.7537 1.723495,-0.67411 1.947703,-2.7841 3.586663,-3.48651 1.506484,-0.64563 2.158785,0.75146 2.956901,0.78455 0.360158,0.0149 1.860607,-0.0503 2.103524,0.3026 1.921037,2.79084 -2.251844,1.70915 1.238388,3.77942 0.424054,0.25153 0.85883,0.76758 1.372999,0.82471 2.181154,0.24235 4.773466,0.82798 5.613856,3.13409 0.13308,0.36521 0.49294,0.59245 0.38723,1.01532 -0.37431,1.49723 -6.964424,1.52308 -7.720532,6.07899 -0.121479,1.19377 -0.21984,2.37009 -0.0246,3.56526 0.843203,5.16176 7.892622,4.2435 7.892622,8.938821 0,1.39231 -0.047,2.933585 -1.68539,3.371971 -2.885635,0.772091 -6.931269,-0.9928 -10.491332,0.09131 -1.013986,0.631185 -2.222764,0.746285 -2.979981,1.75455 -2.423835,3.227435 -1.618891,7.344071 3.164245,6.746179 2.547176,-0.318397 4.592562,-1.810893 7.033726,-2.304893 0.46312,-0.09372 2.749952,-0.44303 3.083692,-0.109314 2.21061,2.210432 1.14092,6.486153 1.14092,9.17967 0.10533,4.243972 1.2252,9.700894 5.0785,12.067305 z"
         id="path20324" /><path
         style="fill:#ffa500;stroke:none;stroke-width:2.5;stroke-linecap:round;stroke-linejoin:round;stroke-dasharray:none;stroke-opacity:1;paint-order:stroke fill markers"
         d="m 95.088431,-58.406678 c 1.063281,-2.537311 -5.278677,-10.65312 -5.089058,-4.735582 0.01523,0.475261 -3.950528,-1.126395 -2.891903,2.578793 0.622432,2.178512 6.648401,4.965659 7.980961,2.156789 z"
         id="path20583" /><path
         style="fill:#ffa500;stroke:none;stroke-width:2.5;stroke-linecap:round;stroke-linejoin:round;stroke-dasharray:none;stroke-opacity:1;paint-order:stroke fill markers"
         d="m 107.89233,-69.363381 c 1.10953,-1.371822 2.12818,1.377353 2.92617,1.119093 0.26581,-0.08603 1.54029,-1.315787 1.91587,-0.932125 1.27732,1.304811 -0.90465,6.707287 -2.78925,6.236138 -2.56594,-0.641485 -3.0194,-6.449 -2.05279,-6.423106 z"
         id="path20775" /><path
         style="fill:#ffa500;stroke:none;stroke-width:2.5;stroke-linecap:round;stroke-linejoin:round;stroke-dasharray:none;stroke-opacity:1;paint-order:stroke fill markers"
         d="m 89.232657,-94.762633 c 1.591462,-0.974219 3.382493,-1.078697 5.207824,-1.078697 1.639044,0 3.316548,0.08892 4.931776,0.382595 3.257023,0.592188 10.681443,1.940541 4.442613,5.683842 -1.2624,0.757439 -3.09521,0.231854 -4.435938,0.5 -4.816394,0.963279 -5.035383,4.17319 -11.249165,2.131866 -0.490874,-0.161259 -2.154376,-0.984935 -2.365242,-1.617534 -0.955689,-2.867065 3.63131,-3.668441 3.468132,-6.002072 z"
         id="path20779" /><path
         style="fill:#f2f2f2;fill-opacity:1;stroke:none;stroke-width:2.5;stroke-linecap:round;stroke-linejoin:round;stroke-dasharray:none;stroke-opacity:1;paint-order:stroke fill markers"
         d="m 94.974992,-112.94455 c 0.997829,-1.12509 2.304035,-1.65118 3.681157,-2.10822 1.921031,-0.63756 3.252751,-1.03136 5.253751,-0.43358 3.86543,1.15475 7.74362,7.10066 5.22228,10.88266 -1.31187,1.96781 -5.13007,3.88009 -7.50719,3.64237 -2.614557,-0.26145 -6.420347,-4.30386 -7.097265,-6.6699 -0.472424,-1.65128 0.418817,-3.58485 0.447267,-5.31333 z"
         id="path20781" /><path
         style="fill:#f2f2f2;fill-opacity:1;stroke:none;stroke-width:2.5;stroke-linecap:round;stroke-linejoin:round;stroke-dasharray:none;stroke-opacity:1;paint-order:stroke fill markers"
         d="m 79.389538,-114.81498 c 10.230772,1.21041 5.373654,19.134644 -4.126426,16.759623 -5.701334,-1.425333 -7.922418,-13.076823 -2.289552,-15.893263 1.934464,-0.96723 5.694037,-0.40859 6.415978,-0.86636 z"
         id="path21483" /><path
         style="fill:#cd853f;fill-opacity:1;stroke:none;stroke-width:2.5;stroke-linecap:round;stroke-linejoin:round;stroke-dasharray:none;stroke-opacity:1;paint-order:stroke fill markers"
         d="m 59.401007,-81.216739 c -1.40223,-2.248351 -2.587771,-4.639618 -4.593576,-6.394698 -1.740553,-1.522984 -3.204796,-4.759506 -5.627795,-5.772403 -2.876314,-1.202398 -12.021104,1.617361 -10.368211,5.732042 2.712613,6.752728 7.189328,7.907921 11.677636,12.396228 1.213821,1.213821 2.025013,2.952776 3.348982,4.056083 0.361431,0.301193 4.251113,4.628508 4.448765,4.477649 1.104037,-0.842661 0.08839,-4.770002 0.08839,-5.865854 0,-2.535231 1.086305,-8.269703 1.025811,-8.629047 z"
         id="path21485"
         sodipodi:nodetypes="ssssssssss" /></g><g
       id="g20322"
       inkscape:label="lineart"
       style="display:inline"><path
         style="fill:none;stroke:#000000;stroke-width:2.5;stroke-linecap:round;stroke-linejoin:round;stroke-dasharray:none;stroke-opacity:1;paint-order:stroke fill markers"
         d="m 103.48042,-115.90028 c -15.978656,-0.76065 -7.726903,20.364241 3.21829,13.80823 5.55457,-3.3271 2.74098,-13.30068 -3.21829,-13.80823 z"
         id="path411" /><path
         style="display:inline;fill:none;stroke:#000000;stroke-width:2.5;stroke-linecap:round;stroke-linejoin:round;stroke-dasharray:none;stroke-opacity:1;paint-order:stroke fill markers"
         d="m 79.254389,-114.77846 c -14.972467,-3.07682 -11.032827,20.114196 0.961701,15.689132 6.162882,-2.273632 7.726184,-14.604922 -0.961701,-15.689132 z"
         id="path1627"
         sodipodi:nodetypes="csc" /><path
         style="fill:none;stroke:#000000;stroke-width:2.5;stroke-linecap:round;stroke-linejoin:round;stroke-dasharray:none;stroke-opacity:1;paint-order:stroke fill markers"
         d="m 106.46452,-93.305876 c -2.84567,-1.91439 -6.514175,-1.937827 -9.838343,-2.312733 -7.281209,-0.821188 -7.128529,0.392989 -10.964561,5.816414 1.117356,5.562455 10.1048,2.614251 13.094349,0.372089 2.621355,1.284717 7.868465,-0.529801 7.708555,-3.87577 z"
         id="path4539" /><path
         style="fill:none;stroke:#000000;stroke-width:2.5;stroke-linecap:round;stroke-linejoin:round;stroke-dasharray:none;stroke-opacity:1;paint-order:stroke fill markers"
         d="m 91.080397,-99.892452 c 0.845764,0.859353 1.075164,2.005238 1.429855,2.963224"
         id="path6723" /><path
         style="fill:none;stroke:#000000;stroke-width:2.5;stroke-linecap:round;stroke-linejoin:round;stroke-dasharray:none;stroke-opacity:1;paint-order:stroke fill markers"
         d="m 68.557811,-85.71573 c -5.250195,12.532379 5.878,16.465114 8.522074,2.388795"
         id="path8907" /><path
         style="fill:none;stroke:#000000;stroke-width:2.5;stroke-linecap:round;stroke-linejoin:round;stroke-dasharray:none;stroke-opacity:1;paint-order:stroke fill markers"
         d="m 90.274848,-90.075732 c 2.897609,-0.500897 6.035914,-1.744591 8.571586,0.0531"
         id="path12555" /><path
         style="fill:none;stroke:#000000;stroke-width:2.5;stroke-linecap:round;stroke-linejoin:round;stroke-dasharray:none;stroke-opacity:1;paint-order:stroke fill markers"
         d="m 110.42329,-67.675196 c -0.19432,-1.865937 3.11523,-2.982025 2.65009,-0.423759 -0.26416,1.452893 -1.376,4.450096 -2.3729,5.446989 -2.48677,0.654198 -3.33088,-4.004277 -3.06843,-5.703388 0.10627,-0.687965 0.45394,-1.217616 0.7186,-1.812283 1.63824,-0.420886 1.89994,1.403868 2.07264,2.492441 z"
         id="path14739" /><path
         style="fill:none;stroke:#000000;stroke-width:2.5;stroke-linecap:round;stroke-linejoin:round;stroke-dasharray:none;stroke-opacity:1;paint-order:stroke fill markers"
         d="m 90.469399,-62.365822 c -0.143822,-0.344713 -0.532601,-1.2217 -0.695467,-1.727158 -1.478057,-4.587177 2.205637,-1.557811 3.448425,0.0898 0.658418,0.872889 0.595558,2.110026 0.992148,3.109845 0.487768,1.229683 1.101534,2.493597 0.315292,3.594336 -2.806198,1.095735 -7.165054,-2.414226 -8.161148,-4.904462 -0.233434,-0.583584 -0.531572,-1.624806 0.385252,-1.509409 1.358206,-0.42026 2.47639,1.360223 3.715498,1.347048 z"
         id="path15467" /><path
         style="fill:none;stroke:#000000;stroke-width:2.5;stroke-linecap:round;stroke-linejoin:round;stroke-dasharray:none;stroke-opacity:1;paint-order:stroke fill markers"
         d="m 86.127962,-63.287381 c -3.458698,-0.706104 -7.242483,0.26036 -10.484334,-0.972272"
         id="path16195" /><path
         style="fill:none;stroke:#000000;stroke-width:2.5;stroke-linecap:round;stroke-linejoin:round;stroke-dasharray:none;stroke-opacity:1;paint-order:stroke fill markers"
         d="m 91.773687,-57.106599 c -3.27474,2.384173 -26.308558,2.156588 -29.037967,0.487781 -2.823714,-1.726466 -2.646158,-5.241399 -3.121074,-8.090895 -2.40801,-9.815245 0.113306,-20.033378 0.654917,-29.958682 0.313862,-5.751665 -0.813098,-10.948405 0.609375,-16.638295 0.780434,-3.12174 -1.662966,-8.53587 1.758655,-10.36689 3.35539,-2.19097 7.779489,-0.95538 11.620732,-1.30459 2.163639,-0.19669 3.904327,-1.65687 6.088239,-1.41421 2.193736,0.24375 3.997756,1.04526 6.245373,1.04526 0.677224,-4.55055 6.342428,-6.81068 4.407097,-3.14603 2.552517,-0.11651 5.106074,0.8522 3.325648,3.37389 -0.03703,0.0524 -3.001476,0.38982 -3.315146,0.52923"
         id="path16923"
         sodipodi:nodetypes="cscsscssccsc" /><path
         style="fill:none;stroke:#000000;stroke-width:2.5;stroke-linecap:round;stroke-linejoin:round;stroke-dasharray:none;stroke-opacity:1;paint-order:stroke fill markers"
         d="m 95.439219,-60.079516 c 2.723444,-4.641534 8.952551,-1.98391 13.390411,-3.083056"
         id="path17651" /><path
         style="fill:none;stroke:#000000;stroke-width:2.5;stroke-linecap:round;stroke-linejoin:round;stroke-dasharray:none;stroke-opacity:1;paint-order:stroke fill markers"
         d="m 107.47908,-66.416643 c -6.74495,-3.78681 -6.0224,-14.988926 -5.2118,-21.974334"
         id="path18379" /><path
         style="fill:none;stroke:#000000;stroke-width:2.5;stroke-linecap:round;stroke-linejoin:round;stroke-dasharray:none;stroke-opacity:1;paint-order:stroke fill markers"
         d="m 102.68808,-95.332322 c 0.27366,-1.416286 -0.16067,-2.847717 -0.0128,-4.204662"
         id="path19107" /><path
         style="fill:none;stroke:#000000;stroke-width:2.5;stroke-linecap:round;stroke-linejoin:round;stroke-dasharray:none;stroke-opacity:1;paint-order:stroke fill markers"
         d="m 102.65614,-116.22733 c 0.80374,-4.99984 -4.429687,-4.9515 -8.24374,-5.60484"
         id="path19835"
         sodipodi:nodetypes="cc" /><path
         style="fill:#000000;stroke:#000000;stroke-width:2.5;stroke-linecap:round;stroke-linejoin:round;stroke-dasharray:none;stroke-opacity:1;paint-order:stroke fill markers"
         d="m 102.75969,-112.02307 c -5.845603,0.0223 -3.722169,8.5846 1.7709,6.75358 3.41986,-1.13996 1.86916,-5.82357 -1.7709,-6.75358 z"
         id="path20200" /><path
         style="fill:#000000;stroke:#000000;stroke-width:2.5;stroke-linecap:round;stroke-linejoin:round;stroke-dasharray:none;stroke-opacity:1;paint-order:stroke fill markers"
         d="m 77.636641,-110.95369 c -1.759827,0.1828 -2.79624,0.0495 -3.556904,1.26661 -2.442181,3.90748 3.06432,8.07088 6.080379,5.05662 2.218239,-2.21692 0.613608,-5.83351 -2.523475,-6.32323 z"
         id="path20211"
         sodipodi:nodetypes="cssc" /><path
         style="fill:none;stroke:#000000;stroke-width:2.5;stroke-linecap:round;stroke-linejoin:round;stroke-dasharray:none;stroke-opacity:1;paint-order:stroke fill markers"
         d="m 58.398363,-80.517972 c -1.614204,-4.060511 -4.034692,-6.82294 -6.317837,-10.475973 -3.74757,-5.996111 -13.789446,-1.88184 -13.165046,1.864561 1.684262,10.105572 15.671183,14.558108 19.744897,23.72324"
         id="path20278"
         sodipodi:nodetypes="cssc" /><path
         style="fill:none;stroke:#000000;stroke-width:2.5;stroke-linecap:round;stroke-linejoin:round;stroke-dasharray:none;stroke-opacity:1;paint-order:stroke fill markers"
         d="m 56.766543,-82.367848 c 0.09992,3.527471 -1.351293,6.801784 -2.026021,10.147429"
         id="path20280" /><path
         style="fill:none;stroke:#000000;stroke-width:2.5;stroke-linecap:round;stroke-linejoin:round;stroke-dasharray:none;stroke-opacity:1;paint-order:stroke fill markers"
         d="m 51.43308,-74.580465 c 0.934573,-3.870906 2.608336,-8.125554 2.778711,-12.439486"
         id="path20282"
         sodipodi:nodetypes="cc" /><path
         style="fill:none;stroke:#000000;stroke-width:2.5;stroke-linecap:round;stroke-linejoin:round;stroke-dasharray:none;stroke-opacity:1;paint-order:stroke fill markers"
         d="m 46.593683,-78.146458 c 1.396734,-4.006283 4.669866,-8.062918 4.669866,-12.461079"
         id="path20288" /><path
         style="fill:none;stroke:#000000;stroke-width:2.5;stroke-linecap:round;stroke-linejoin:round;stroke-dasharray:none;stroke-opacity:1;paint-order:stroke fill markers"
         d="m 43.72227,-82.462106 c 0.143817,-4.207721 2.458041,-7.730501 3.861644,-11.473443"
         id="path20290" /><path
         style="fill:none;stroke:#000000;stroke-width:2.5;stroke-linecap:round;stroke-linejoin:round;stroke-dasharray:none;stroke-opacity:1;paint-order:stroke fill markers"
         d="m 39.677112,-89.524041 c 4.010391,-0.897176 9.347736,-0.943604 13.334723,0.04682"
         id="path20292" /><path
         style="fill:none;stroke:#000000;stroke-width:2.5;stroke-linecap:round;stroke-linejoin:round;stroke-dasharray:none;stroke-opacity:1;paint-order:stroke fill markers"
         d="m 43.18811,-81.860301 c 4.720727,0.0106 9.794927,-1.155103 14.235789,-1.703164"
         id="path20294" /><path
         style="fill:none;stroke:#000000;stroke-width:2.5;stroke-linecap:round;stroke-linejoin:round;stroke-dasharray:none;stroke-opacity:1;paint-order:stroke fill markers"
         d="m 49.134681,-76.324506 c 3.407592,-0.630721 5.668891,-0.729823 9.179393,-0.729823"
         id="path20296"
         sodipodi:nodetypes="cc" /><path
         style="fill:none;stroke:#000000;stroke-width:2.5;stroke-linecap:round;stroke-linejoin:round;paint-order:stroke fill markers"
         d="m 105.12323,-136.75613 c 11.07896,-0.77968 3.95997,6.32016 1.533,8.66644"
         id="path376"
         sodipodi:nodetypes="cc" /><path
         style="fill:none;stroke:#000000;stroke-width:2.5;stroke-linecap:round;stroke-linejoin:round;paint-order:stroke fill markers"
         d="m 105.11324,-125.13483 c -0.66684,2.98527 3.26167,0.37264 0,0 z"
         id="path441"
         sodipodi:nodetypes="cc" /><path
         style="display:inline;fill:none;stroke:#000000;stroke-width:2.5;stroke-linecap:round;stroke-linejoin:round;paint-order:stroke fill markers"
         d="m 113.14208,-141.84351 c 10.27346,-4.21987 5.7446,4.75661 4.17734,7.74641"
         id="path376-3"
         sodipodi:nodetypes="cc" /><path
         style="display:inline;fill:none;stroke:#000000;stroke-width:2.5;stroke-linecap:round;stroke-linejoin:round;paint-order:stroke fill markers"
         d="m 116.78256,-130.80714 c 0.30451,3.04364 3.21367,-0.67063 0,0 z"
         id="path441-6"
         sodipodi:nodetypes="cc" /><path
         style="display:inline;fill:none;stroke:#000000;stroke-width:2.5;stroke-linecap:round;stroke-linejoin:round;paint-order:stroke fill markers"
         d="m 95.325558,-145.11366 c 10.963102,1.77812 2.407427,7.05904 -0.492349,8.78719"
         id="path376-7"
         sodipodi:nodetypes="cc" /><path
         style="display:inline;fill:none;stroke:#000000;stroke-width:2.5;stroke-linecap:round;stroke-linejoin:round;paint-order:stroke fill markers"
         d="m 92.654554,-133.80348 c -1.332745,2.75323 3.089668,1.10966 0,0 z"
         id="path441-5"
         sodipodi:nodetypes="cc" /></g></g></svg>
