<?xml version="1.0" encoding="UTF-8" standalone="no"?>
<!-- Created with Inkscape (http://www.inkscape.org/) -->

<svg
   width="72.164513mm"
   height="49.196632mm"
   viewBox="0 0 272.74779 185.94003"
   version="1.1"
   id="svg5"
   xml:space="preserve"
   sodipodi:docname="rede.svg"
   inkscape:version="1.2.1 (9c6d41e410, 2022-07-14, custom)"
   inkscape:export-filename="rede.png"
   inkscape:export-xdpi="300"
   inkscape:export-ydpi="300"
   xmlns:inkscape="http://www.inkscape.org/namespaces/inkscape"
   xmlns:sodipodi="http://sodipodi.sourceforge.net/DTD/sodipodi-0.dtd"
   xmlns="http://www.w3.org/2000/svg"
   xmlns:svg="http://www.w3.org/2000/svg"><sodipodi:namedview
     id="namedview7"
     pagecolor="#505050"
     bordercolor="#eeeeee"
     borderopacity="1"
     inkscape:showpageshadow="0"
     inkscape:pageopacity="0"
     inkscape:pagecheckerboard="0"
     inkscape:deskcolor="#505050"
     inkscape:document-units="mm"
     showgrid="false"
     inkscape:zoom="2.0000001"
     inkscape:cx="214.74999"
     inkscape:cy="88.999998"
     inkscape:window-width="1880"
     inkscape:window-height="1001"
     inkscape:window-x="20"
     inkscape:window-y="59"
     inkscape:window-maximized="1"
     inkscape:current-layer="layer4"
     showguides="false" /><defs
     id="defs2" /><g
     inkscape:groupmode="layer"
     id="layer4"
     inkscape:label="REDE"
     transform="rotate(25.972942,-468.80749,186.36824)"><g
       id="g2358"
       inkscape:label="cor"><path
         style="fill:#faebd7;stroke:none;stroke-width:2.5;stroke-linecap:round;stroke-linejoin:round;paint-order:stroke fill markers"
         d="m 4.735008,-186.55634 c -6.379082,11.06683 -23.62177,24.09637 -37.546575,21.77557 -12.858085,-2.14301 -25.837635,-3.27593 -38.926355,-5.12979 -4.76535,-0.67496 -13.06465,-4.24235 -17.79697,-2.65164 -5.97227,2.00749 -20.150968,7.75083 -26.413318,5.65464 -14.81491,-4.95899 2.77825,-25.34075 10.07618,-28.25991 8.869138,-3.54765 31.796481,-2.16189 38.588738,-11.13643 0.25808,-0.341 8.58457,6.57092 13.37655,8.9669 10.70993,5.35497 47.974395,19.35849 58.64175,10.78066 z"
         id="path2352"
         sodipodi:nodetypes="csssssssc" /><path
         style="fill:#a0522d;stroke:none;stroke-width:2.5;stroke-linecap:round;stroke-linejoin:round;paint-order:stroke fill markers"
         d="m 194.15852,-144.07281 c -3.89725,-6.3568 -18.64078,-6.77646 -25.54943,-8.29383 -9.30272,-2.0432 -18.28437,-5.72591 -27.58952,-7.6036 -5.4605,-1.10188 -10.99392,-1.67701 -16.40735,-2.92746 -2.85854,-0.21059 -5.45193,-1.27555 -8.15959,-2.08785 -5.4053,-1.62159 -9.67262,-5.18889 -15.3487,-6.45036 -9.429908,-2.09573 -20.914253,-2.7776 -29.81659,-6.7342 -1.713143,-1.03465 -3.857478,-0.82315 -5.649897,-1.49531 -1.273149,-0.47743 -2.207031,-1.72738 -3.380604,-2.37937 -1.580446,-0.87802 -3.779362,-1.44418 -5.518082,-1.87886 -1.360087,-0.34002 -2.814314,0.27987 -4.144951,0.12614 -3.94235,-0.45547 -9.254102,-1.55292 -13.150786,-2.69866 -8.178882,-2.40482 -15.892316,-5.80189 -23.751446,-8.9731 -1.18157,-0.42957 -2.831134,-0.2292 -3.884715,-1.02171 -0.431122,-0.3243 -0.277891,-2.30224 -0.811714,-2.96952 -2.1951446,-2.74393 -5.6590855,-4.92952 -8.5227208,-6.93567 -3.6060828,-2.52628 -8.7516279,-3.61432 -12.7763102,-5.29605 -9.766781,-4.0811 -18.488508,-6.3563 -28.93194,-7.17087 -4.65594,-0.36316 -9.246121,0.69979 -13.903738,0.69979 -2.429301,0.8189 -12.444916,1.24672 -13.927737,3.47095 -2.763768,4.14566 1.07666,7.10908 3.404384,9.90235 3.070349,3.68442 6.763743,4.60491 10.544297,6.96776 11.394786,7.12174 22.148516,9.63154 34.886804,12.07396 6.275259,0.34801 12.5032462,0.84178 18.73018766,0.0634 1.55134604,-0.19392 2.10968034,-2.17223 3.75999094,-2.37852 3.3245625,-0.41557 7.9657934,1.86879 11.0433394,2.81963 3.106819,0.007 6.631003,-0.74549 9.705738,0.0925 5.067181,1.38107 10.318485,4.18284 14.96592,6.50655 5.320097,2.66005 11.069399,4.85286 16.67352,6.89072 5.419208,1.97063 12.460813,1.18699 18.117028,1.18699 7.342917,1.01245 13.721975,5.90201 19.7016,10.05358 1.356007,0.94146 2.31006,2.48101 3.714856,3.35928 2.935826,1.83546 9.676936,1.18863 13.049756,0.4914 13.98304,2.38241 27.95246,4.99481 41.79993,7.7643 4.43746,0.8875 8.61211,4.09462 12.91205,5.34014 7.16328,0.80734 14.31393,6.46179 21.26911,7.62098 1.34953,0.22492 3.22692,-1.02628 4.3125,-1.75 2.66512,-1.77675 1.41578,-4.39404 2.63481,-6.38548 z"
         id="path2031"
         sodipodi:nodetypes="csscsscssssscssssscssscssccsscssc" /><path
         style="fill:#faebd7;stroke:none;stroke-width:2.5;stroke-linecap:round;stroke-linejoin:round;paint-order:stroke fill markers"
         d="m 0.332895,-198.28858 c -5.428418,-5.54636 -13.327099,-9.20831 -20.846661,-11.00217 -3.319084,-0.79178 -6.50068,-1.29289 -9.918891,-1.48767 -2.820673,-0.16074 -5.699735,-0.31127 -8.509135,-0.61331 -3.09162,-0.33238 -26.21858,-1.4968 -12.44938,6.398 6.43432,3.68923 21.032636,7.35588 28.450458,8.52397 3.602077,0.56722 7.066065,0.64908 10.572494,1.52844 1.484783,0.37236 2.790729,-0.74922 4.184368,-0.74922 2.880968,0 6.72425,0.76267 8.868622,-1.17229 0.363428,-0.32794 -0.412741,-0.94004 -0.351875,-1.42575 z"
         id="path2286" /></g><g
       id="g1977"
       inkscape:label="lineart"><path
         style="fill:none;stroke:#000000;stroke-width:2.5;stroke-linecap:round;stroke-linejoin:round;paint-order:stroke fill markers"
         d="m 192.40209,-146.06114 c -1.10788,-1.43436 -2.76729,-1.73831 -4.48534,-1.73831 -6.06632,0 -9.43506,8.9784 -2.92304,11.58322 5.91459,2.36582 11.84846,-5.32466 7.40838,-9.84491 z"
         id="path1856" /><path
         style="fill:none;stroke:#000000;stroke-width:2.5;stroke-linecap:round;stroke-linejoin:round;paint-order:stroke fill markers"
         d="m 189.2809,-143.68317 c -5.19288,-0.82176 -3.38487,7.03103 0.16382,2.29946 0.7047,-0.9396 0.45195,-1.53908 -0.16382,-2.29946 z"
         id="path1858" /><path
         style="fill:none;stroke:#000000;stroke-width:2.5;stroke-linecap:round;stroke-linejoin:round;paint-order:stroke fill markers"
         d="m 187.13962,-148.31242 c -14.03583,-2.66724 -27.92311,-5.8768 -41.7615,-9.58442 -8.76391,-2.34805 -26.79464,-4.03903 -33.72772,-8.99122 -0.74472,-0.53195 -4.18656,-3.38104 -5.07255,-3.04774 -4.20208,1.58075 -8.762297,11.21989 -2.65055,13.25715 2.5771,0.85903 5.01438,-0.14661 7.6014,0.17677 8.74525,1.09316 17.68398,2.63556 26.35909,4.25626 13.11504,2.45018 33.27174,9.51601 44.74198,15.29848"
         id="path1860" /><path
         style="fill:none;stroke:#000000;stroke-width:2.5;stroke-linecap:round;stroke-linejoin:round;paint-order:stroke fill markers"
         d="m 106.09852,-169.65246 c -7.600946,-5.67047 -11.439487,7.3665 -10.110864,10.27181 0.942841,2.06173 4.008953,1.20835 5.569794,2.18298"
         id="path1864" /><path
         style="fill:none;stroke:#000000;stroke-width:2.5;stroke-linecap:round;stroke-linejoin:round;paint-order:stroke fill markers"
         d="m 100.28029,-171.0629 c -10.990146,-2.88625 -21.846904,-5.21074 -32.650064,-8.53479 -2.273753,-0.69962 -4.262446,-3.00765 -6.577233,-3.00765 -3.00387,0 -4.951951,10.34564 -3.807799,10.94973 4.260882,2.24967 12.032802,0.48506 16.808374,1.05956 7.748915,0.93218 15.747432,6.60962 21.520684,11.55812"
         id="path1866" /><path
         style="fill:none;stroke:#000000;stroke-width:2.5;stroke-linecap:round;stroke-linejoin:round;paint-order:stroke fill markers"
         d="m 60.884368,-182.79299 c -7.746443,-6.81306 -11.351123,10.8556 -4.859741,10.8556"
         id="path1870" /><path
         style="fill:none;stroke:#000000;stroke-width:2.5;stroke-linecap:round;stroke-linejoin:round;paint-order:stroke fill markers"
         d="m 55.972972,-183.68395 c -2.081861,-0.0704 -4.192665,-0.5804 -6.152026,-0.97227 -6.737532,-1.34751 -12.844511,-1.90302 -19.449612,-4.54513 -2.876703,-1.15071 -12.36754,-6.57445 -15.278193,-5.9923 -2.480493,0.49609 -4.639965,0.9567 -5.751598,3.45338 -0.209334,0.47015 -0.400604,4.22066 -0.766123,4.22066 -0.284726,0 0.486149,0.29696 0.736018,0.43347 1.686618,0.92143 3.457586,1.3045 5.285727,1.56566 4.200461,0.60007 9.659551,-1.39587 13.461242,1.13859 2.418698,1.61247 5.270824,2.18039 7.911814,3.31224 5.533308,2.37142 10.387499,7.45593 16.601763,8.12543"
         id="path1872" /><path
         style="fill:none;stroke:#000000;stroke-width:2.5;stroke-linecap:round;stroke-linejoin:round;paint-order:stroke fill markers"
         d="m 13.310921,-195.22379 c -8.038463,-4.85211 -14.82021,6.6707 -4.321971,7.95165"
         id="path1874" /><path
         style="fill:none;stroke:#000000;stroke-width:2.5;stroke-linecap:round;stroke-linejoin:round;paint-order:stroke fill markers"
         d="m 12.316569,-196.49595 c -4.563035,-10.25148 -30.708759,-18.17352 -41.214773,-20.29205 -6.994528,-1.41044 -14.601128,-0.9888 -21.775228,-0.9888 -3.96428,0 -13.96227,-0.61401 -16.67535,3.45561 -5.02808,7.54213 12.22468,16.37151 17.39047,18.95939 4.25137,2.12978 8.66701,3.64775 13.14268,5.23387 5.768924,2.04443 10.575926,3.40681 16.691461,4.09031 5.923861,0.66208 12.488494,1.55367 18.392355,0.3729 2.038476,-0.40769 4.1408599,-1.16915 5.634719,-2.73671"
         id="path1876"
         sodipodi:nodetypes="csssssssc" /><path
         style="fill:none;stroke:#000000;stroke-width:2.5;stroke-linecap:round;stroke-linejoin:round;paint-order:stroke fill markers"
         d="m 0.127317,-198.7726 c -9.862483,-9.90943 -31.852975,-12.98668 -45.343139,-12.98668 -1.58735,0 -9.84608,-0.99301 -10.34846,1.0165 -1.92772,7.71087 28.952811,13.56184 35.121246,14.44305 3.950118,0.5643 7.861455,0.77252 12.018598,0.61871 1.8832839,-0.0697 11.061824,0.64952 8.551755,-3.09158 z"
         id="path1878"
         sodipodi:nodetypes="cssssc" /><path
         style="fill:none;stroke:#000000;stroke-width:2.5;stroke-linecap:round;stroke-linejoin:round;paint-order:stroke fill markers"
         d="m 4.880921,-188.50563 c -13.036537,35.50947 -60.058243,20.30409 -89.794493,16.05606 -10.13421,-1.44775 -19.690978,5.62729 -29.732798,5.62729 -6.35751,0 -7.32441,-10.14287 -5.5416,-14.30278 9.52322,-22.22084 45.201538,-12.44288 53.744688,-25.24255"
         id="path1880" /><path
         style="fill:none;stroke:#000000;stroke-width:2.5;stroke-linecap:round;stroke-linejoin:round;paint-order:stroke fill markers"
         d="m -53.502622,-196.48618 c 6.66235,4.64151 18.5976,18.74468 25.993408,21.20996"
         id="path1882" /><path
         style="fill:none;stroke:#000000;stroke-width:2.5;stroke-linecap:round;stroke-linejoin:round;paint-order:stroke fill markers"
         d="m -42.061987,-191.64984 c -12.57227,0.13381 -24.688425,0.73886 -36.184245,5.83216"
         id="path1884"
         sodipodi:nodetypes="cc" /><path
         style="fill:none;stroke:#000000;stroke-width:2.5;stroke-linecap:round;stroke-linejoin:round;paint-order:stroke fill markers"
         d="m -52.16218,-196.29147 c -11.63314,-0.19811 -22.070552,2.577 -32.841422,6.85188"
         id="path1886"
         sodipodi:nodetypes="cc" /><path
         style="fill:none;stroke:#000000;stroke-width:2.5;stroke-linecap:round;stroke-linejoin:round;paint-order:stroke fill markers"
         d="m -27.416387,-186.75327 c -11.524898,6.05703 -35.379055,3.70004 -46.558955,9.28999"
         id="path1888"
         sodipodi:nodetypes="cc" /><path
         style="fill:none;stroke:#000000;stroke-width:2.5;stroke-linecap:round;stroke-linejoin:round;paint-order:stroke fill markers"
         d="m -23.073256,-179.95031 c -13.417756,1.3208 -27.488466,1.6147 -39.652536,7.69674"
         id="path1890" /><path
         style="fill:none;stroke:#000000;stroke-width:2.5;stroke-linecap:round;stroke-linejoin:round;paint-order:stroke fill markers"
         d="m -74.240142,-196.37354 c 4.86366,11.66877 17.18216,18.67308 24.6044,28.38636"
         id="path1892" /><path
         style="fill:none;stroke:#000000;stroke-width:2.5;stroke-linecap:round;stroke-linejoin:round;paint-order:stroke fill markers"
         d="m -65.175632,-198.6885 c 5.39391,10.47264 13.45189,19.91476 22.3858,27.5724"
         id="path1894" /></g><path
       style="fill:none;stroke:none;stroke-width:2.5;stroke-linecap:round;stroke-linejoin:round;paint-order:stroke fill markers"
       d="m 113.38487,-298.54784 c -7.61744,16.11659 -16.645851,31.62312 -26.986828,46.19695 -25.587646,36.06141 -55.93547,69.296 -77.366542,108.20527 -16.5435976,30.03578 -24.060655,65.450229 -37.680325,96.884632"
       id="path2430" /></g></svg>
