<?xml version="1.0" encoding="UTF-8" standalone="no"?>
<!-- Created with Inkscape (http://www.inkscape.org/) -->

<svg
   width="52.633797mm"
   height="37.362045mm"
   viewBox="0 0 198.9309 141.21088"
   version="1.1"
   id="svg5"
   xml:space="preserve"
   sodipodi:docname="patio.svg"
   inkscape:version="1.2.1 (9c6d41e410, 2022-07-14, custom)"
   inkscape:export-filename="duda.png"
   inkscape:export-xdpi="300"
   inkscape:export-ydpi="300"
   xmlns:inkscape="http://www.inkscape.org/namespaces/inkscape"
   xmlns:sodipodi="http://sodipodi.sourceforge.net/DTD/sodipodi-0.dtd"
   xmlns="http://www.w3.org/2000/svg"
   xmlns:svg="http://www.w3.org/2000/svg"><sodipodi:namedview
     id="namedview7"
     pagecolor="#505050"
     bordercolor="#eeeeee"
     borderopacity="1"
     inkscape:showpageshadow="0"
     inkscape:pageopacity="0"
     inkscape:pagecheckerboard="0"
     inkscape:deskcolor="#505050"
     inkscape:document-units="mm"
     showgrid="false"
     inkscape:zoom="2"
     inkscape:cx="161.75"
     inkscape:cy="165.75"
     inkscape:window-width="1880"
     inkscape:window-height="1001"
     inkscape:window-x="20"
     inkscape:window-y="59"
     inkscape:window-maximized="1"
     inkscape:current-layer="layer3"
     showguides="false" /><defs
     id="defs2" /><g
     inkscape:groupmode="layer"
     id="layer5"
     inkscape:label="DUDA"
     transform="translate(-1790.6842,-1219.6136)"
     sodipodi:insensitive="true"
     style="display:none"><g
       id="g89710"
       inkscape:label="cor"
       transform="translate(-404.83676,-705.93456)"><path
         style="fill:#8e0000;fill-opacity:1;stroke:none;stroke-width:4.97007;stroke-linecap:round;stroke-linejoin:round;stroke-dasharray:none;stroke-opacity:1;paint-order:stroke fill markers"
         d="m 2357.6323,2164.292 c 3.3662,-5.1482 -0.1609,-9.0566 -0.6516,-14 -0.1528,-1.5393 0.2471,-3.1943 -0.075,-4.6942 -0.4476,-2.0823 -1.9781,-3.7599 -2.4901,-5.808 -0.7614,-3.0456 -0.1026,-6.8799 -0.6386,-10.0972 -0.2396,-1.4383 -2.2254,-2.0557 -2.4433,-3.3629 -0.3638,-2.1832 2.0043,-4.9084 0.819,-7.279 -1.8713,-3.7424 -7.4909,-4.7471 -7.4909,-9.7552 -0.2357,-4.521 -3.4214,-1.4308 -5.3999,-2.42 -3.3822,-1.6911 -3.0169,-5.0616 -5.1907,-6.1485 -3.951,-1.9755 -7.1503,1.2807 -9.8692,-1.4629 -1.7262,-1.7419 -2.0626,-5.8834 -4.4271,-6.6857 -10.7983,-4.985 -0.4229,-3.913 -1.8026,-9.4149 -0.2032,-0.8107 -0.5505,-1.9963 -1.2259,-2.5366 -1.0668,-0.8534 -8.7637,-3.5817 -10.4744,-3.0929 -2.4756,0.7073 -3.2341,3.2975 -5.8945,2.9413 -13.0128,-1.7424 -23.5597,-7.6592 -37.003,-2.1044 -2.6519,1.2694 -5.6117,1.835 -8.3484,2.9811 -4.6602,1.9515 -9.2718,3.6954 -13.1962,7.0575 -2.0599,1.7646 -3.5477,4.7098 -5.8783,6.1803 -2.3732,1.4974 -4.7549,1.5022 -7.2386,2.3301 -3.6586,1.2195 -2.6306,4.6093 -4.0889,6.7967 -0.9733,1.46 -2.9231,2.4968 -3.5412,4.145 -0.733,1.9547 -0.592,3.9839 -0.298,6.0057 -0.9787,3.6171 -5.4725,4.712 -6.9001,7.9311 -1.6031,3.6149 -1.9332,5.5558 -4.5824,8.8518 -1.1752,1.4623 -4.0288,7.4964 -3.1299,9.1815 1.2435,2.3312 5.535,1.2542 6.6256,-0.9472 0.6462,-1.3044 0.7563,-2.8367 1.5174,-4.1039 1.8564,-3.0912 6.0956,-5.0394 8.1992,-7.9846 1.5542,-2.1757 2.1103,-5.0008 3.6334,-7.0316 0.975,-1.3 3.3709,-2.0894 4.5968,-3.3153 1.9866,-1.9866 0.3827,-7.4204 1.2277,-9.9341 0.6728,-2.0018 8.3494,-4.776 10.2893,-5.1303 2.9674,-0.4375 5.9857,-0.022 8.9541,-0.3299 4.2992,-0.4466 8.9487,-2.2774 13.2277,-3.1653 4.0339,-0.837 8.198,-0.8105 12.2834,-1.2644 1.2485,-0.1387 2.7699,-0.2284 3.9413,-0.6064 0.2982,-0.096 1.0285,-1.701 1.4987,-1.35 0.2739,0.2045 0.3605,3.0189 0.613,3.5626 0.4142,0.8921 2.0921,2.7901 3.0828,3.3291 5.6853,3.0933 11.9014,2.1032 18.133,2.6225 1.5857,0.1322 2.8042,1.1602 4.2835,1.5301 2.492,0.623 2.8804,-2.3579 3.9755,-2.4349 0.047,0 1.5626,1.753 1.7638,1.9017 2.3948,1.7698 5.5832,2.6693 8.3897,3.55 4.1168,1.2921 7.0993,-1.8608 10.7161,0.7227 0.663,2.1858 -1.3665,5.5449 0.3936,7.3048 2.0422,2.0419 4.8083,3.0266 6.9403,4.7299 1.5399,1.2302 6.9189,12.6525 7.1511,14.9739 0.3403,3.4031 -0.4161,6.9641 -0.152,10.4241 0.1318,1.7276 1.3058,3.2206 0.9894,5.0914 -0.235,1.3897 -2.3103,6.966 -1.2962,8.3238 2.0587,2.7563 9.1357,1.5908 10.4816,3.9916 z"
         id="path79420" /><path
         style="fill:#f9e0b9;fill-opacity:1;stroke:none;stroke-width:4.97007;stroke-linecap:round;stroke-linejoin:round;stroke-dasharray:none;stroke-opacity:1;paint-order:stroke fill markers"
         d="m 2333.7636,2109.2139 c -2.6057,5.5467 -3.8556,15.4941 -8.8019,19.6161 -2.7916,2.3263 -6.704,3.7194 -9.8754,5.5317 -20.7289,11.8452 -38.4393,17.3418 -61.9791,7.9258 -3.2017,-1.2807 -7.7695,-2.2419 -10.2815,-4.751 -4.8977,-4.8921 -6.8616,-10.1279 -9.2541,-16.508 -6.9096,-18.4255 13.4649,-19.7212 26.5616,-21.7349 6.9416,-1.0673 13.1164,-2.6368 20.2217,-2.1421 3.7765,0.2629 3.4201,4.3045 5.9438,5.386 5.5234,2.3672 11.8164,1.5032 17.5194,3.0254 5.5537,1.4824 9.1134,-2.7659 11.1767,-2.1764 2.6287,0.7511 3.4406,3.6666 5.7955,4.2874 4.6576,1.2277 8.7457,-0.3012 12.9733,1.54 z"
         id="path81255" /><path
         style="fill:#f2f2f2;fill-opacity:1;stroke:none;stroke-width:4.97007;stroke-linecap:round;stroke-linejoin:round;stroke-dasharray:none;stroke-opacity:1;paint-order:stroke fill markers"
         d="m 2303.5823,2104.1598 c -1.7501,5.1573 -6.9952,12.9493 -12.7276,14.2926 -3.2753,0.7675 -13.9351,2.2385 -17.0594,-0.1893 -7.174,-5.5745 0.7564,-16.7408 5.0887,-20.7374 3.4543,-3.1866 5.1696,4.0992 7.0006,5.1164 1.9486,1.0826 16.4111,2.5911 17.6977,1.5177 z"
         id="path82312" /><path
         style="fill:#f2f2f2;fill-opacity:1;stroke:none;stroke-width:4.97007;stroke-linecap:round;stroke-linejoin:round;stroke-dasharray:none;stroke-opacity:1;paint-order:stroke fill markers"
         d="m 2265.4322,2097.1604 c -2.9256,12.5055 -8.743,21.7346 -22.7182,17.5417 -1.6121,-0.4837 -3.8474,-0.7215 -5.1549,-1.9097 -7.7813,-7.0709 3.6836,-10.6607 9.0789,-11.6028 3.1934,-0.5576 6.4139,-1.4786 9.601,-2.1477 2.7205,-0.5712 6.5038,-2.4887 9.1932,-1.8815 z"
         id="path82377" /><path
         style="fill:#f08080;fill-opacity:1;stroke:none;stroke-width:4.97007;stroke-linecap:round;stroke-linejoin:round;stroke-dasharray:none;stroke-opacity:1;paint-order:stroke fill markers"
         d="m 2271.361,2131.685 c 9.7661,5.345 -7.5097,14.6335 0,0 z"
         id="path82943" /><path
         style="fill:#f9e0b9;fill-opacity:1;stroke:none;stroke-width:4.97007;stroke-linecap:round;stroke-linejoin:round;stroke-dasharray:none;stroke-opacity:1;paint-order:stroke fill markers"
         d="m 2322.003,2158.1278 c -1.0934,-0.6302 -0.6038,-0.1722 -1.019,-0.5873 -0.1955,-0.1955 2.5064,5.2234 7.0487,8.2516 4.7631,3.1754 10.1013,0.7564 15.0638,3.734 1.1287,0.6772 0.3827,2.5526 0.8946,3.5765 0.6703,1.3405 -3.027,1.7666 -3.5426,2.2821 -1.6957,1.6956 0.5692,5.2926 -1.0505,6.9124 -1.7372,1.7373 -4.9738,-2.1066 -7.0929,-2.1066 -1.8137,0 -6.4967,3.0953 -7.9354,1.6566 -2.3837,-2.3838 1.7476,-5.7546 0.2823,-8.6109 -2.9649,-5.7796 -14.1431,-15.1292 -2.649,-15.1084 z"
         id="path83809" /><path
         style="fill:#f9e0b9;fill-opacity:1;stroke:none;stroke-width:4.97007;stroke-linecap:round;stroke-linejoin:round;stroke-dasharray:none;stroke-opacity:1;paint-order:stroke fill markers"
         d="m 2247.5309,2153.9134 c -0.4662,2.1747 3.3191,6.691 1.1951,8.8284 -1.8344,1.8459 -6.269,0.7235 -8.0998,2.4383 -1.6052,1.5036 -5.1391,5.8685 -6.9108,6.7488 -1.3654,0.6784 -5.843,1.543 -7.1168,1.0603 -0.5825,-0.2208 0.1414,-1.8198 -0.4691,-2.0834 -9.5641,-4.13 -2.5905,-4.1435 -1.5173,-7.8999 0.6451,-2.2579 -3.9565,-5.8257 2.0754,-5.8257 3.2745,0 4.2091,2.9841 8.1624,2.5448 4.3475,-0.483 8.7019,-7.0481 12.6809,-5.8116 z"
         id="path84744" /><path
         style="fill:#654f36;fill-opacity:1;stroke:none;stroke-width:4.97007;stroke-linecap:round;stroke-linejoin:round;stroke-dasharray:none;stroke-opacity:1;paint-order:stroke fill markers"
         d="m 2260.6949,2215.1819 c -0.049,2.6771 -0.7249,5.1669 -1.2029,7.7961 -0.5065,2.7854 1.0417,11.2652 -1.6244,13.0625 -1.7412,1.1738 -34.3751,5.7474 -35.0933,4.3738 -0.7154,-1.3683 0.7392,-4.8491 0.9036,-6.3286 2.1069,-18.9625 9.7822,-3.9119 18.8193,-8.4305 6.1806,-3.0902 -0.2311,-11.2788 11.8653,-11.2788 2.5032,0 4.5317,-0.259 6.3324,0.8055 z"
         id="path85472" /><path
         style="fill:#654f36;fill-opacity:1;stroke:none;stroke-width:4.97007;stroke-linecap:round;stroke-linejoin:round;stroke-dasharray:none;stroke-opacity:1;paint-order:stroke fill markers"
         d="m 2295.5955,2217.3187 c 3.4364,0.1409 6.4674,-0.022 9.5782,-1.3554 5.6174,-2.4075 1.7686,2.1068 4.5911,4.9294 6.6685,6.6685 13.133,-7.1146 24.9982,3.6219 2.0413,1.8471 4.0558,11.5565 2.4143,14.0189 -1.9071,2.8606 -10.6246,4.8077 -13.8288,5.1637 -2.9971,0.333 -5.4081,2.6834 -8.2831,3.1626 -7.5197,1.2533 -14.1514,-4.3864 -18.3459,-8.9555 -2.1386,-2.3295 -5.0554,0.7685 -5.8365,-3.9184 -0.7003,-4.2015 3.0852,-13.2681 4.7125,-16.6672 z"
         id="path86200"
         sodipodi:nodetypes="cssssssssc" /><path
         style="fill:#add8e6;fill-opacity:1;stroke:none;stroke-width:4.97007;stroke-linecap:round;stroke-linejoin:round;stroke-dasharray:none;stroke-opacity:1;paint-order:stroke fill markers"
         d="m 2308.1537,2214.4324 c -0.045,-2.3531 -1.4485,-4.526 -1.9656,-6.8526 -0.4115,-1.8518 -3.8723,-9.2542 -3.3075,-10.7874 0.7009,-1.9028 2.6857,-3.2536 3.6125,-5.1073 1.6286,-3.2571 6.1703,-17.9136 5.3683,-21.6866 -1.0357,-4.8721 -10.6658,-0.1118 -11.8763,-6.1638 -0.3672,-1.8364 -2.504,-18.328 -2.5564,-18.3544 -7.2835,-3.6647 -6.6615,16.558 -7.624,17.0346 -2.6316,1.3029 -7.5991,0.7765 -10.5077,1.0603 -0.9771,0.095 -9.3742,1.7709 -9.8613,0.7671 -1.7578,-3.6227 1.3777,-19.5056 -2.9386,-18.1181 -5.7821,1.8586 -3.8547,13.0831 -5.3787,17.147 -2.0387,5.4365 -9.2927,5.8197 -11.4457,10.8433 -1.9687,4.5937 0.067,15.9446 1.6566,20.7135 0.6214,1.864 2.2427,2.3561 2.5456,4.4764 0.6176,4.323 -4.4849,10.0988 -3.1626,13.8439 0.4277,1.2115 9.4269,2.5526 10.3281,0.7613 1.6124,-3.2046 1.2627,-7.5676 3.9017,-10.6553 0.3989,-0.4668 3.4817,0.083 4.1619,0.1506 7.2691,0.7269 13.1072,-1.4776 20.0262,-2.8614 7.0358,-1.4072 0.6791,16.1951 11.6584,16.1951 3.3969,0 5.0671,-0.08 7.3651,-2.4062 z"
         id="path87628" /><path
         style="fill:#f5f5f5;fill-opacity:1;stroke:none;stroke-width:4.97007;stroke-linecap:round;stroke-linejoin:round;stroke-dasharray:none;stroke-opacity:1;paint-order:stroke fill markers"
         d="m 2311.7777,2167.1142 c 0.7956,-2.8577 1.6888,-1.811 3.5421,-0.8785 7.4211,3.7341 -0.295,-6.9069 0.211,-8.4248 1.6803,-5.041 8.0278,5.4247 8.7792,0.9164 0.8168,-4.9011 -1.1266,-3.3077 -3.7368,-5.5564 -0.7518,-0.6476 -1.9372,-7.6411 -7.4284,-10.3763 -2.1382,-1.065 -5.288,-1.6595 -7.6942,-1.3587 -2.791,0.3489 -4.5586,2.6402 -6.9807,2.9497 -6.0883,0.7778 -12.3508,0.3477 -18.4343,1.2168 -8.1018,1.1574 -24.6137,-5.8471 -29.928,3.0101 -6.0729,10.1215 2.3602,6.4621 1.017,11.6756 -0.4547,1.7649 6.986,-1.7566 5.164,-1.7963 -2.3793,-0.052 -3.5853,8.9537 -3.1404,10.1687 0.1543,0.4216 6.3119,-2.3448 6.7894,-3.2997 1.2633,-2.5268 4.5431,-20.3407 7.8012,-18.5094 4.4771,2.5164 -3.6837,14.3289 -0.6254,16.706 1.347,1.047 22.8919,-2.0118 23.147,-2.3943 2.6957,-4.0436 1.6924,-13.4546 5.8633,-14.8449 0.3561,-0.1187 2.1439,-0.4586 2.4953,-0.1435 0.3258,0.2921 -0.8262,3.189 -0.9036,3.7305 -0.7511,5.2578 -0.2496,10.1716 1.3121,14.8567 0.8089,2.4268 10.5533,0.7933 12.7502,2.3523 z"
         id="path88482" /></g><g
       id="g89756"
       inkscape:label="lineart"
       transform="translate(-404.83676,-705.93456)"><path
         style="fill:none;fill-opacity:1;stroke:#000000;stroke-width:4.45421;stroke-linecap:round;stroke-linejoin:round;stroke-dasharray:none;stroke-opacity:1;paint-order:stroke fill markers"
         d="m 2304.8677,2230.8207 c 11.8564,-16.9489 32.5657,-16.4249 31.909,7.1814 -5.2833,2.7491 -19.8601,8.4316 -25.4346,7.8741 -2.4225,-0.2422 -4.843,-1.178 -7.188,-1.8268 -1.5408,-0.4262 -3.244,-0.5128 -4.5013,-1.613 -1.3742,-1.2024 -1.6127,-3.3711 -2.4081,-4.7607 -2.098,0.021 -3.8398,-0.6939 -4.8403,-2.4377 1.7084,-5.9249 1.9325,-12.2316 2.3619,-18.3262 7.1347,1.2759 8.7069,2.4118 13.7103,-2.5917 1.024,1.5482 0.5518,3.7371 1.0174,5.3432"
         id="path75311" /><path
         style="fill:none;fill-opacity:1;stroke:#000000;stroke-width:4.45421;stroke-linecap:round;stroke-linejoin:round;stroke-dasharray:none;stroke-opacity:1;paint-order:stroke fill markers"
         d="m 2313.6454,2222.4359 c -1.7622,-0.648 -4.6709,-1.7604 -6.2772,-0.8248"
         id="path75676" /><path
         style="fill:none;fill-opacity:1;stroke:#000000;stroke-width:4.45421;stroke-linecap:round;stroke-linejoin:round;stroke-dasharray:none;stroke-opacity:1;paint-order:stroke fill markers"
         d="m 2261.8941,2214.6823 c -2.6948,6.9763 -1.8785,15.2169 -2.4749,22.3627 -5.9647,-4.4637 -33.9751,5.736 -35.949,4.3005 0.2742,-7.2359 -2.8901,-19.2739 8.8803,-17.9661 4.2139,0.4682 7.0361,2.9196 11.4849,2.5845"
         id="path76041" /><path
         style="fill:none;fill-opacity:1;stroke:#000000;stroke-width:4.45421;stroke-linecap:round;stroke-linejoin:round;stroke-dasharray:none;stroke-opacity:1;paint-order:stroke fill markers"
         d="m 2243.1518,2228.3666 c 1.6208,-4.3612 4.7547,-9.0222 4.7547,-13.8429 4.4883,-0.6917 9.5131,-1.2032 13.9851,-0.3906"
         id="path76045" /><path
         style="fill:none;fill-opacity:1;stroke:#000000;stroke-width:4.45421;stroke-linecap:round;stroke-linejoin:round;stroke-dasharray:none;stroke-opacity:1;paint-order:stroke fill markers"
         d="m 2307.4662,2214.4957 c 0.8778,-6.2741 -2.6312,-11.9026 -4.7517,-17.6185"
         id="path76047" /><path
         style="fill:none;fill-opacity:1;stroke:#000000;stroke-width:4.45421;stroke-linecap:round;stroke-linejoin:round;stroke-dasharray:none;stroke-opacity:1;paint-order:stroke fill markers"
         d="m 2295.7965,2217.2724 c -2.2933,-4.2285 -2.7541,-13.0814 -2.1586,-17.8454"
         id="path76049"
         sodipodi:nodetypes="cc" /><path
         style="fill:none;fill-opacity:1;stroke:#000000;stroke-width:4.45421;stroke-linecap:round;stroke-linejoin:round;stroke-dasharray:none;stroke-opacity:1;paint-order:stroke fill markers"
         d="m 2259.9619,2213.6264 c 2.7455,-2.3678 3.6659,-8.0242 3.6659,-11.6235"
         id="path76051" /><path
         style="fill:none;fill-opacity:1;stroke:#000000;stroke-width:4.45421;stroke-linecap:round;stroke-linejoin:round;stroke-dasharray:none;stroke-opacity:1;paint-order:stroke fill markers"
         d="m 2250.5936,2213.3227 c 0.2585,-5.4383 3.1652,-10.0663 4.3712,-15.3332"
         id="path76053" /><path
         style="fill:none;fill-opacity:1;stroke:#000000;stroke-width:4.45421;stroke-linecap:round;stroke-linejoin:round;stroke-dasharray:none;stroke-opacity:1;paint-order:stroke fill markers"
         d="m 2263.7803,2200.7723 c 3.2966,3.2531 26.5799,2.5783 29.6711,-2.6421"
         id="path76055"
         sodipodi:nodetypes="cc" /><path
         style="fill:none;fill-opacity:1;stroke:#000000;stroke-width:4.45421;stroke-linecap:round;stroke-linejoin:round;stroke-dasharray:none;stroke-opacity:1;paint-order:stroke fill markers"
         d="m 2302.8083,2196.4223 c 9.1878,-4.3875 8.2857,-17.8931 10.1603,-26.3286 -4.1047,-3.0565 -8.9911,-3.899 -14.0801,-3.899 0.9288,-6.638 -1.8642,-13.459 -0.4211,-19.9528"
         id="path76057" /><path
         style="fill:none;fill-opacity:1;stroke:#000000;stroke-width:4.45421;stroke-linecap:round;stroke-linejoin:round;stroke-dasharray:none;stroke-opacity:1;paint-order:stroke fill markers"
         d="m 2293.1388,2146.4866 c -1.2284,5.2908 -2.2905,10.7848 -2.2905,16.2501 -7.8647,-1.25 -15.5574,1.6235 -23.1545,2.1666 -0.2117,-5.8308 0.7371,-11.4772 1.8837,-17.2105"
         id="path76059" /><path
         style="fill:none;fill-opacity:1;stroke:#000000;stroke-width:4.45421;stroke-linecap:round;stroke-linejoin:round;stroke-dasharray:none;stroke-opacity:1;paint-order:stroke fill markers"
         d="m 2263.988,2146.9229 c 0,5.7132 -2.0249,12.6694 -4.4696,17.6424 -2.0464,3.4249 -5.7456,4.953 -8.5176,7.3195 -0.4842,9.3584 -3.9899,19.0533 2.984,26.6652"
         id="path76063" /><path
         style="fill:none;fill-opacity:1;stroke:#000000;stroke-width:4.45421;stroke-linecap:round;stroke-linejoin:round;stroke-dasharray:none;stroke-opacity:1;paint-order:stroke fill markers"
         d="m 2252.8518,2169.183 c -0.056,-4.3305 1.9194,-8.1181 3.8473,-11.9428 -2.0118,2.2675 -5.4379,4.0473 -7.3416,1.0015 -3.3575,-11.3468 0.4326,-8.5226 7.5077,-12.4531"
         id="path76065" /><path
         style="fill:none;fill-opacity:1;stroke:#000000;stroke-width:4.45421;stroke-linecap:round;stroke-linejoin:round;stroke-dasharray:none;stroke-opacity:1;paint-order:stroke fill markers"
         d="m 2249.4744,2160.4196 c -3.0773,3.562 -9.2555,2.4617 -12.578,5.3376 -0.2799,0.2421 -0.1674,2.1309 -0.4761,2.5949 -1.9027,2.8602 -6.9658,6.126 -10.5585,4.9285 -1.2883,-0.4294 0.5187,-3.7226 1.4746,-3.7226 0.3034,0 -0.6067,0 -0.91,0 -1.7428,0 -3.7269,-0.571 -4.991,-1.8351 -2.0889,-2.0889 1.6478,-2.6857 2.8829,-3.3468 0.8168,-0.4372 -0.9321,-1.6047 -1.3169,-2.4474 -0.4178,-0.915 -0.5485,-3.2416 0.5727,-3.7222 3.9627,-1.6982 5.1293,1.043 8.5881,1.9076 2.3945,0.5987 13.3236,-4.7357 15.2914,-6.4565"
         id="path76069" /><path
         style="fill:none;fill-opacity:1;stroke:#000000;stroke-width:4.45421;stroke-linecap:round;stroke-linejoin:round;stroke-dasharray:none;stroke-opacity:1;paint-order:stroke fill markers"
         d="m 2312.3654,2168.5595 c -1.3017,-1.5241 -0.4326,-2.8664 -0.6669,-4.5063 -0.1645,-1.152 -2.5448,-2.3816 -1.6225,-3.0909 0.2437,-0.1873 4.0805,4.0451 5.0242,4.7221 1.2021,0.8624 3.0627,0.6007 4.7403,-0.182 m 4.4649,-5.3613 c 0.346,-1.989 0.5851,-3.3262 0.159,-4.7231 -0.4261,-1.3968 -1.4803,-1.9477 -2.7863,-1.7004 -1.3059,0.2474 -2.8635,1.2929 -4.2965,3.0888 -1.4328,1.7958 -2.741,4.3419 -3.548,7.5905"
         id="path76071"
         sodipodi:nodetypes="csssccsssc" /><path
         style="fill:none;fill-opacity:1;stroke:#000000;stroke-width:4.45421;stroke-linecap:round;stroke-linejoin:round;stroke-dasharray:none;stroke-opacity:1;paint-order:stroke fill markers"
         d="m 2321.7378,2153.2092 c -3.7746,-5.4345 -8.5809,-10.45 -15.4524,-11.0227"
         id="path76077" /><path
         style="fill:none;fill-opacity:1;stroke:#000000;stroke-width:4.45421;stroke-linecap:round;stroke-linejoin:round;stroke-dasharray:none;stroke-opacity:1;paint-order:stroke fill markers"
         d="m 2319.313,2156.233 c 3.6627,3.5972 7.0002,7.7514 10.2032,11.7551 0.3093,0.3867 1.4781,1.8871 1.8121,1.9076 0.084,0.01 10.3373,-5.6995 12.132,1.479 0.5461,2.1841 -1.4623,4.8899 -2.9302,4.4529 -3.4675,-1.032 3.5925,3.4618 -2.25,6.4872 -2.2684,1.1747 -4.184,-3.8924 -4.8597,-3.588 -3.1541,1.4205 -6.3814,5.0611 -9.096,0.9975 -1.5419,-2.308 2.3181,-5.1852 2.1221,-5.874 -0.8379,-2.9452 -7.2413,-10.9655 -9.5753,-13.7664"
         id="path76083"
         sodipodi:nodetypes="cscssssssc" /><path
         style="fill:none;fill-opacity:1;stroke:#000000;stroke-width:4.45421;stroke-linecap:round;stroke-linejoin:round;stroke-dasharray:none;stroke-opacity:1;paint-order:stroke fill markers"
         d="m 2291.6011,2194.3983 c -0.5383,-5.6409 -0.9602,-14.3327 2.1729,-20.2304 -8.653,0.566 -19.7675,-2.8847 -27.8198,1.3207 -3.8647,5.6174 -3.5327,14.6556 -0.8669,20.5992 5.2734,1.5187 24.3603,-4.4899 26.5138,-1.6895 z"
         id="path76085" /><path
         style="fill:none;fill-opacity:1;stroke:#000000;stroke-width:4.45421;stroke-linecap:round;stroke-linejoin:round;stroke-dasharray:none;stroke-opacity:1;paint-order:stroke fill markers"
         d="m 2231.7238,2107.2875 c -0.7397,6.6486 1.229,15.6615 5.3966,20.7865 2.4993,4.1406 4.6579,8.5228 8.0296,11.8946 2.6015,2.6013 8.7085,3.0618 12.1207,4.1993 10.5071,3.5023 30.6752,3.7351 41.0787,0.2673 4.3794,-1.4598 9.7502,-4.0655 13.726,-6.451 4.0964,-2.4578 7.8388,-3.8889 11.5665,-8.2551 6.4136,-5.5354 4.6558,-5.8372 6.0994,-10.8719 1.0522,-3.6696 4.9138,-5.5494 3.861,-10.2868 -0.4162,-1.873 -4.8019,0.073 -5.0874,-0.5554 -3.2648,-7.1976 -7.1924,-14.0156 -14.2206,-19.0621 2.5406,-1.0162 6.3455,-2.9135 5.9737,-6.2598 -0.2926,-2.6334 -5.4032,-1.1157 -5.1007,-1.1157 0.8883,0 3.1526,-2.4769 1.8121,-3.1471 -2.9946,-1.4973 -7.2813,1.8849 -6.8407,1.4444 2.7642,-2.7643 -6.636,-5.9829 -7.7155,2.9448 -3.1225,-1.3881 -5.8295,-3.2636 -9.3025,-4.0163 -21.8287,-4.7309 -58.7385,3.4291 -64.561,27.9506 4.2563,-1.4238 8.3668,-3.6094 12.6827,-4.9843 5.6577,-1.8023 33.1442,-7.098 38.9557,-5.1607"
         id="path76087"
         sodipodi:nodetypes="csssscssscssssc" /><path
         style="fill:none;fill-opacity:1;stroke:#000000;stroke-width:4.45421;stroke-linecap:round;stroke-linejoin:round;stroke-dasharray:none;stroke-opacity:1;paint-order:stroke fill markers"
         d="m 2280.6334,2096.6315 c 1.4336,-2.6958 2.687,-6.0358 4.3201,-8.9713"
         id="path76089" /><path
         style="fill:none;fill-opacity:1;stroke:#000000;stroke-width:4.45421;stroke-linecap:round;stroke-linejoin:round;stroke-dasharray:none;stroke-opacity:1;paint-order:stroke fill markers"
         d="m 2283.0687,2093.4417 c 0.8089,6.7152 -0.9952,8.9538 5.725,9.5039 7.7358,0.6332 15.4345,-0.4743 22.084,3.5153 1.2558,-2.9085 0.2819,-6.2435 3.4717,-7.6612"
         id="path76091" /><path
         style="fill:none;fill-opacity:1;stroke:#000000;stroke-width:4.45421;stroke-linecap:round;stroke-linejoin:round;stroke-dasharray:none;stroke-opacity:1;paint-order:stroke fill markers"
         d="m 2312.385,2093.6717 c -0.9628,8.7809 6.1267,19.5474 15.9053,14.6658"
         id="path76093" /><path
         style="fill:none;fill-opacity:1;stroke:#000000;stroke-width:4.45421;stroke-linecap:round;stroke-linejoin:round;stroke-dasharray:none;stroke-opacity:1;paint-order:stroke fill markers"
         d="m 2327.8651,2108.7333 c -0.2911,0.6074 -0.4755,1.2815 -0.6609,1.8976"
         id="path76099" /><path
         style="fill:none;fill-opacity:1;stroke:#000000;stroke-width:4.45421;stroke-linecap:round;stroke-linejoin:round;stroke-dasharray:none;stroke-opacity:1;paint-order:stroke fill markers"
         d="m 2232.7059,2095.7327 c -2.2001,-1.2207 -6.0576,0.7596 -6.7749,3.1506 -0.3239,1.0797 0.3662,3.0276 0.094,3.7268 -0.6768,1.7397 -5.1761,2.5963 -6.2224,6.7814 -0.3885,1.5538 0.4541,6.7537 -0.6125,7.6726 -1.3638,1.1749 -4.0643,2.7149 -4.8374,4.6478 -0.2693,0.6731 -0.6787,2.4628 -0.2864,3.1495 0.091,0.1589 1.1483,1.3108 1.1453,1.3134 -2.1107,1.8277 -4.8713,1.9066 -5.7895,5.1206 -0.3592,1.2572 0.2137,2.3493 -0.5727,3.5288 -0.7384,1.1077 -2.3272,0.9016 -2.9636,2.179 -0.3144,0.6311 2.3313,-0.291 2.0829,0.369 -0.2265,0.6015 -2.8508,4.3877 -0.3913,4.3877 2.1449,0 4.1928,-1.3643 4.1501,-1.343 -0.7822,0.3912 -1.3603,2.9973 -0.6073,2.5525 3.3504,-1.9794 2.6728,-8.4359 -1.6305,-8.4359 -0.4802,0 2.8283,2.2601 4.2904,1.1968 2.6191,-1.9048 2.8894,-6.1066 6.6087,-5.8205 1.784,0.1372 0.9364,-2.7593 1.5011,-3.8887 0.8324,-1.6648 3.3186,-1.5134 4.1743,-3.7953 0.4292,-1.1445 -0.9091,-2.1565 -0.5727,-3.1083 0.031,-0.089 4.3862,-1.4195 5.2088,-2.4757"
         id="path76101" /><path
         style="fill:none;fill-opacity:1;stroke:#000000;stroke-width:4.454;stroke-linecap:round;stroke-linejoin:round;stroke-dasharray:none;stroke-opacity:1;paint-order:stroke fill markers"
         d="m 2326.0806,2100.7872 c 2.7192,-0.1302 10.7293,-0.4973 11.6562,3.2099 0.1789,0.7157 -0.4374,2.419 0.095,2.9585 0.668,0.6765 3.8692,-0.5969 5.0202,-0.2132 4.3381,1.446 2.4674,5.5134 4.2158,8.1361 1.3546,2.0319 5.5658,1.9732 6.333,4.6583 1.1356,3.9746 -2.2398,4.829 -2.2459,7.7104 0,0.7103 3.0423,3.0082 3.5166,4.0466 2.2425,4.9102 -0.4572,7.6834 -0.1818,8.7849 1.0576,4.2304 3.9061,3.2169 2.3177,9.5605 2.0142,2.3516 -1.5702,4.3652 -1.2976,6.2332 0.076,0.524 1.0813,0.01 1.5772,0.1909 1.1153,0.4182 1.2427,1.7254 1.6224,2.6723 0.3071,0.7658 -1.6515,5.8886 0.2326,5.8886 0.2986,0 -4.0827,0.5675 -5.1163,-0.9828 -0.414,-0.621 0.5855,-2.989 0.6706,-2.9041 2.0596,2.0588 -4.0084,2.7674 -4.0084,0.086 0,-0.2749 0.1953,0.7833 -0.077,0.8207 -1.2151,0.1671 -2.8823,0.298 -3.7528,-0.5726 -1.0549,-1.0549 -0.5592,-4.9959 0.4604,-6.0156 3.3504,-3.3505 0.039,-3.6236 0.828,-8.3994 0.2114,-1.2806 2.24,-3.9467 1.6226,-5.1417 -1.7901,-3.4644 -2.6726,-2.2909 -2.6726,-7.2565 0,-4.7286 -1.9422,-2.2652 -3.4345,-5.2499 -1.0113,-2.0226 0.01,-5.6632 -1.3392,-7.4579 -0.5388,-0.7183 -2.1421,-1.0473 -2.8852,-1.2319 -1.0796,-0.2682 -8.716,-3.3082 -5.7547,-5.1468"
         id="path76103" /><path
         style="fill:none;fill-opacity:1;stroke:#000000;stroke-width:4.45421;stroke-linecap:round;stroke-linejoin:round;stroke-dasharray:none;stroke-opacity:1;paint-order:stroke fill markers"
         d="m 2348.8736,2153.3231 c 2.18,0.7453 4.5796,0.7112 6.7261,1.2967"
         id="path76105" /><path
         style="fill:none;fill-opacity:1;stroke:#000000;stroke-width:4.45421;stroke-linecap:round;stroke-linejoin:round;stroke-dasharray:none;stroke-opacity:1;paint-order:stroke fill markers"
         d="m 2276.7762,2098.0214 c -2.3256,2.0898 -4.5999,5.3924 -5.0555,8.6004 -0.2403,1.6931 -0.9126,4.08 -0.4771,5.8217 2.9152,11.6608 30.7261,9.0999 30.7261,-8.1449"
         id="path76109" /><path
         style="fill:none;fill-opacity:1;stroke:#000000;stroke-width:4.45421;stroke-linecap:round;stroke-linejoin:round;stroke-dasharray:none;stroke-opacity:1;paint-order:stroke fill markers"
         d="m 2281.473,2107.9908 c -3.9123,3.5154 1.8876,2.537 0,0 z"
         id="path76113" /><path
         style="fill:none;fill-opacity:1;stroke:#000000;stroke-width:3.07867;stroke-linecap:round;stroke-linejoin:round;stroke-dasharray:none;stroke-opacity:1;paint-order:stroke fill markers"
         d="m 2245.8794,2104.2142 c -2.7041,2.4298 1.3047,1.7536 0,0 z"
         id="path76113-0" /><path
         style="fill:none;fill-opacity:1;stroke:#000000;stroke-width:4.45421;stroke-linecap:round;stroke-linejoin:round;stroke-dasharray:none;stroke-opacity:1;paint-order:stroke fill markers"
         d="m 2265.5711,2098.7107 c -0.217,1.663 -0.7831,3.2055 -1.1056,4.8181 -2.9233,14.6166 -29.1784,16.8432 -29.1784,1.0581"
         id="path76117" /><path
         style="fill:none;fill-opacity:1;stroke:#000000;stroke-width:4.45421;stroke-linecap:round;stroke-linejoin:round;stroke-dasharray:none;stroke-opacity:1;paint-order:stroke fill markers"
         d="m 2264.8139,2118.4319 c -4.0263,1.3144 -6.9501,1.9282 -4.5029,5.4276"
         id="path76510" /><path
         style="fill:none;fill-opacity:1;stroke:#000000;stroke-width:4.45421;stroke-linecap:round;stroke-linejoin:round;stroke-dasharray:none;stroke-opacity:1;paint-order:stroke fill markers"
         d="m 2270.6307,2130.4378 c -9.0751,14.8909 13.3114,6.3413 0,0 z"
         id="path77238" /></g></g><g
     inkscape:groupmode="layer"
     id="layer1"
     inkscape:label="PERRY"
     style="display:none"
     transform="translate(8.1110993,149.18684)"><g
       id="g20390"
       inkscape:label="cor"
       style="fill:#008080"><path
         style="fill:#008080;stroke:none;stroke-width:2.5;stroke-linecap:round;stroke-linejoin:round;stroke-dasharray:none;stroke-opacity:1;paint-order:stroke fill markers"
         d="m 107.12456,-67.874571 c -0.43337,0.60865 2.19727,4.340194 1.91094,4.882048 -0.16227,0.307061 -5.57571,0.167193 -6.20901,0.196376 -1.39634,0.06435 -7.259361,1.956903 -7.735534,1.804415 -1.112048,-0.356118 -1.232265,-4.060006 -3.228207,-4.512716 -1.502381,-0.340763 -2.02503,0.680457 -2.859748,1.649622 -0.114386,0.13281 -1.694316,0.06493 -2.062036,0.1875 -1.132125,0.377375 1.318361,3.780413 1.73726,4.227325 0.397952,0.424565 3.805433,2.375337 1.96121,3.297448 -1.030587,0.515294 -2.633652,0.06996 -3.778337,0.313111 -5.456959,1.093924 -11.397739,0.93915 -16.954333,0.514062 -1.094573,-0.08374 -2.184589,-0.734389 -3.280935,-0.942785 -1.197545,-0.227632 -4.340276,0.09865 -5.106183,-1.050211 -0.984591,-1.476888 -1.388797,-6.503391 -1.821036,-8.571216 -0.346607,-1.049955 -1.090199,-1.984065 -1.291604,-3.111342 -0.457747,-2.562043 0.148951,-5.227489 0.277077,-7.786643 0.147596,-2.948053 -0.089,-5.85999 0.631551,-8.725178 0.08799,-1.71284 -0.226221,-3.402538 -0.156868,-5.11677 0.07215,-1.783304 0.792179,-3.42881 0.899151,-5.175087 0.193876,-3.164948 -0.401903,-6.336978 -0.601341,-9.490888 0.07529,-0.79811 -0.09589,-1.59435 -0.03993,-2.39163 0.09605,-1.36839 0.885308,-2.59427 0.999273,-3.87634 0.217047,-2.44169 -0.353908,-6.84318 0.433283,-8.89 0.301739,-0.78457 1.331304,-1.55448 2.070179,-1.89925 1.703827,-0.79502 4.117838,-1.43133 5.997967,-1.30496 2.511572,0.16881 5.997079,0.90233 8.413563,-0.30401 0.575989,-0.18057 1.182433,-0.29186 1.78079,-0.35961 0.807211,-0.0914 1.881529,-0.27267 2.691885,-0.051 1.196792,0.32738 2.326708,1.2398 3.569542,0.7537 1.723495,-0.67411 1.947703,-2.7841 3.586663,-3.48651 1.506484,-0.64563 2.158785,0.75146 2.956901,0.78455 0.360158,0.0149 1.860607,-0.0503 2.103524,0.3026 1.921037,2.79084 -2.251844,1.70915 1.238388,3.77942 0.424054,0.25153 0.85883,0.76758 1.372999,0.82471 2.181154,0.24235 4.773466,0.82798 5.613856,3.13409 0.13308,0.36521 0.49294,0.59245 0.38723,1.01532 -0.37431,1.49723 -6.964424,1.52308 -7.720532,6.07899 -0.121479,1.19377 -0.21984,2.37009 -0.0246,3.56526 0.843203,5.16176 7.892622,4.2435 7.892622,8.938821 0,1.39231 -0.047,2.933585 -1.68539,3.371971 -2.885635,0.772091 -6.931269,-0.9928 -10.491332,0.09131 -1.013986,0.631185 -2.222764,0.746285 -2.979981,1.75455 -2.423835,3.227435 -1.618891,7.344071 3.164245,6.746179 2.547176,-0.318397 4.592562,-1.810893 7.033726,-2.304893 0.46312,-0.09372 2.749952,-0.44303 3.083692,-0.109314 2.21061,2.210432 1.14092,6.486153 1.14092,9.17967 0.10533,4.243972 1.2252,9.700894 5.0785,12.067305 z"
         id="path20324" /><path
         style="fill:#ffa500;stroke:none;stroke-width:2.5;stroke-linecap:round;stroke-linejoin:round;stroke-dasharray:none;stroke-opacity:1;paint-order:stroke fill markers"
         d="m 95.088431,-58.406678 c 1.063281,-2.537311 -5.278677,-10.65312 -5.089058,-4.735582 0.01523,0.475261 -3.950528,-1.126395 -2.891903,2.578793 0.622432,2.178512 6.648401,4.965659 7.980961,2.156789 z"
         id="path20583" /><path
         style="fill:#ffa500;stroke:none;stroke-width:2.5;stroke-linecap:round;stroke-linejoin:round;stroke-dasharray:none;stroke-opacity:1;paint-order:stroke fill markers"
         d="m 107.89233,-69.363381 c 1.10953,-1.371822 2.12818,1.377353 2.92617,1.119093 0.26581,-0.08603 1.54029,-1.315787 1.91587,-0.932125 1.27732,1.304811 -0.90465,6.707287 -2.78925,6.236138 -2.56594,-0.641485 -3.0194,-6.449 -2.05279,-6.423106 z"
         id="path20775" /><path
         style="fill:#ffa500;stroke:none;stroke-width:2.5;stroke-linecap:round;stroke-linejoin:round;stroke-dasharray:none;stroke-opacity:1;paint-order:stroke fill markers"
         d="m 89.232657,-94.762633 c 1.591462,-0.974219 3.382493,-1.078697 5.207824,-1.078697 1.639044,0 3.316548,0.08892 4.931776,0.382595 3.257023,0.592188 10.681443,1.940541 4.442613,5.683842 -1.2624,0.757439 -3.09521,0.231854 -4.435938,0.5 -4.816394,0.963279 -5.035383,4.17319 -11.249165,2.131866 -0.490874,-0.161259 -2.154376,-0.984935 -2.365242,-1.617534 -0.955689,-2.867065 3.63131,-3.668441 3.468132,-6.002072 z"
         id="path20779" /><path
         style="fill:#f2f2f2;fill-opacity:1;stroke:none;stroke-width:2.5;stroke-linecap:round;stroke-linejoin:round;stroke-dasharray:none;stroke-opacity:1;paint-order:stroke fill markers"
         d="m 94.974992,-112.94455 c 0.997829,-1.12509 2.304035,-1.65118 3.681157,-2.10822 1.921031,-0.63756 3.252751,-1.03136 5.253751,-0.43358 3.86543,1.15475 7.74362,7.10066 5.22228,10.88266 -1.31187,1.96781 -5.13007,3.88009 -7.50719,3.64237 -2.614557,-0.26145 -6.420347,-4.30386 -7.097265,-6.6699 -0.472424,-1.65128 0.418817,-3.58485 0.447267,-5.31333 z"
         id="path20781" /><path
         style="fill:#f2f2f2;fill-opacity:1;stroke:none;stroke-width:2.5;stroke-linecap:round;stroke-linejoin:round;stroke-dasharray:none;stroke-opacity:1;paint-order:stroke fill markers"
         d="m 79.389538,-114.81498 c 10.230772,1.21041 5.373654,19.134644 -4.126426,16.759623 -5.701334,-1.425333 -7.922418,-13.076823 -2.289552,-15.893263 1.934464,-0.96723 5.694037,-0.40859 6.415978,-0.86636 z"
         id="path21483" /><path
         style="fill:#cd853f;fill-opacity:1;stroke:none;stroke-width:2.5;stroke-linecap:round;stroke-linejoin:round;stroke-dasharray:none;stroke-opacity:1;paint-order:stroke fill markers"
         d="m 59.401007,-81.216739 c -1.40223,-2.248351 -2.587771,-4.639618 -4.593576,-6.394698 -1.740553,-1.522984 -3.204796,-4.759506 -5.627795,-5.772403 -2.876314,-1.202398 -12.021104,1.617361 -10.368211,5.732042 2.712613,6.752728 7.189328,7.907921 11.677636,12.396228 1.213821,1.213821 2.025013,2.952776 3.348982,4.056083 0.361431,0.301193 4.251113,4.628508 4.448765,4.477649 1.104037,-0.842661 0.08839,-4.770002 0.08839,-5.865854 0,-2.535231 1.086305,-8.269703 1.025811,-8.629047 z"
         id="path21485"
         sodipodi:nodetypes="ssssssssss" /></g><g
       id="g20322"
       inkscape:label="lineart"><path
         style="fill:none;stroke:#000000;stroke-width:2.5;stroke-linecap:round;stroke-linejoin:round;stroke-dasharray:none;stroke-opacity:1;paint-order:stroke fill markers"
         d="m 103.48042,-115.90028 c -15.978656,-0.76065 -7.726903,20.364241 3.21829,13.80823 5.55457,-3.3271 2.74098,-13.30068 -3.21829,-13.80823 z"
         id="path411" /><path
         style="display:inline;fill:none;stroke:#000000;stroke-width:2.5;stroke-linecap:round;stroke-linejoin:round;stroke-dasharray:none;stroke-opacity:1;paint-order:stroke fill markers"
         d="m 79.254389,-114.77846 c -14.972467,-3.07682 -11.032827,20.114196 0.961701,15.689132 6.162882,-2.273632 7.726184,-14.604922 -0.961701,-15.689132 z"
         id="path1627"
         sodipodi:nodetypes="csc" /><path
         style="fill:none;stroke:#000000;stroke-width:2.5;stroke-linecap:round;stroke-linejoin:round;stroke-dasharray:none;stroke-opacity:1;paint-order:stroke fill markers"
         d="m 106.46452,-93.305876 c -2.84567,-1.91439 -6.514175,-1.937827 -9.838343,-2.312733 -7.281209,-0.821188 -7.128529,0.392989 -10.964561,5.816414 1.117356,5.562455 10.1048,2.614251 13.094349,0.372089 2.621355,1.284717 7.868465,-0.529801 7.708555,-3.87577 z"
         id="path4539" /><path
         style="fill:none;stroke:#000000;stroke-width:2.5;stroke-linecap:round;stroke-linejoin:round;stroke-dasharray:none;stroke-opacity:1;paint-order:stroke fill markers"
         d="m 91.080397,-99.892452 c 0.845764,0.859353 1.075164,2.005238 1.429855,2.963224"
         id="path6723" /><path
         style="fill:none;stroke:#000000;stroke-width:2.5;stroke-linecap:round;stroke-linejoin:round;stroke-dasharray:none;stroke-opacity:1;paint-order:stroke fill markers"
         d="m 68.557811,-85.71573 c -5.250195,12.532379 5.878,16.465114 8.522074,2.388795"
         id="path8907" /><path
         style="fill:none;stroke:#000000;stroke-width:2.5;stroke-linecap:round;stroke-linejoin:round;stroke-dasharray:none;stroke-opacity:1;paint-order:stroke fill markers"
         d="m 90.274848,-90.075732 c 2.897609,-0.500897 6.035914,-1.744591 8.571586,0.0531"
         id="path12555" /><path
         style="fill:none;stroke:#000000;stroke-width:2.5;stroke-linecap:round;stroke-linejoin:round;stroke-dasharray:none;stroke-opacity:1;paint-order:stroke fill markers"
         d="m 110.42329,-67.675196 c -0.19432,-1.865937 3.11523,-2.982025 2.65009,-0.423759 -0.26416,1.452893 -1.376,4.450096 -2.3729,5.446989 -2.48677,0.654198 -3.33088,-4.004277 -3.06843,-5.703388 0.10627,-0.687965 0.45394,-1.217616 0.7186,-1.812283 1.63824,-0.420886 1.89994,1.403868 2.07264,2.492441 z"
         id="path14739" /><path
         style="fill:none;stroke:#000000;stroke-width:2.5;stroke-linecap:round;stroke-linejoin:round;stroke-dasharray:none;stroke-opacity:1;paint-order:stroke fill markers"
         d="m 90.469399,-62.365822 c -0.143822,-0.344713 -0.532601,-1.2217 -0.695467,-1.727158 -1.478057,-4.587177 2.205637,-1.557811 3.448425,0.0898 0.658418,0.872889 0.595558,2.110026 0.992148,3.109845 0.487768,1.229683 1.101534,2.493597 0.315292,3.594336 -2.806198,1.095735 -7.165054,-2.414226 -8.161148,-4.904462 -0.233434,-0.583584 -0.531572,-1.624806 0.385252,-1.509409 1.358206,-0.42026 2.47639,1.360223 3.715498,1.347048 z"
         id="path15467" /><path
         style="fill:none;stroke:#000000;stroke-width:2.5;stroke-linecap:round;stroke-linejoin:round;stroke-dasharray:none;stroke-opacity:1;paint-order:stroke fill markers"
         d="m 86.127962,-63.287381 c -3.458698,-0.706104 -7.242483,0.26036 -10.484334,-0.972272"
         id="path16195" /><path
         style="fill:none;stroke:#000000;stroke-width:2.5;stroke-linecap:round;stroke-linejoin:round;stroke-dasharray:none;stroke-opacity:1;paint-order:stroke fill markers"
         d="m 91.773687,-57.106599 c -3.27474,2.384173 -26.308558,2.156588 -29.037967,0.487781 -2.823714,-1.726466 -2.646158,-5.241399 -3.121074,-8.090895 -2.40801,-9.815245 0.113306,-20.033378 0.654917,-29.958682 0.313862,-5.751665 -0.813098,-10.948405 0.609375,-16.638295 0.780434,-3.12174 -1.662966,-8.53587 1.758655,-10.36689 3.35539,-2.19097 7.779489,-0.95538 11.620732,-1.30459 2.163639,-0.19669 3.904327,-1.65687 6.088239,-1.41421 2.193736,0.24375 3.997756,1.04526 6.245373,1.04526 0.677224,-4.55055 6.342428,-6.81068 4.407097,-3.14603 2.552517,-0.11651 5.106074,0.8522 3.325648,3.37389 -0.03703,0.0524 -3.001476,0.38982 -3.315146,0.52923"
         id="path16923"
         sodipodi:nodetypes="cscsscssccsc" /><path
         style="fill:none;stroke:#000000;stroke-width:2.5;stroke-linecap:round;stroke-linejoin:round;stroke-dasharray:none;stroke-opacity:1;paint-order:stroke fill markers"
         d="m 95.439219,-60.079516 c 2.723444,-4.641534 8.952551,-1.98391 13.390411,-3.083056"
         id="path17651" /><path
         style="fill:none;stroke:#000000;stroke-width:2.5;stroke-linecap:round;stroke-linejoin:round;stroke-dasharray:none;stroke-opacity:1;paint-order:stroke fill markers"
         d="m 107.47908,-66.416643 c -6.74495,-3.78681 -6.0224,-14.988926 -5.2118,-21.974334"
         id="path18379" /><path
         style="fill:none;stroke:#000000;stroke-width:2.5;stroke-linecap:round;stroke-linejoin:round;stroke-dasharray:none;stroke-opacity:1;paint-order:stroke fill markers"
         d="m 102.68808,-95.332322 c 0.27366,-1.416286 -0.16067,-2.847717 -0.0128,-4.204662"
         id="path19107" /><path
         style="fill:none;stroke:#000000;stroke-width:2.5;stroke-linecap:round;stroke-linejoin:round;stroke-dasharray:none;stroke-opacity:1;paint-order:stroke fill markers"
         d="m 102.65614,-116.22733 c 0.80374,-4.99984 -4.429687,-4.9515 -8.24374,-5.60484"
         id="path19835"
         sodipodi:nodetypes="cc" /><path
         style="fill:#000000;stroke:#000000;stroke-width:2.5;stroke-linecap:round;stroke-linejoin:round;stroke-dasharray:none;stroke-opacity:1;paint-order:stroke fill markers"
         d="m 102.75969,-112.02307 c -5.845603,0.0223 -3.722169,8.5846 1.7709,6.75358 3.41986,-1.13996 1.86916,-5.82357 -1.7709,-6.75358 z"
         id="path20200" /><path
         style="fill:#000000;stroke:#000000;stroke-width:2.5;stroke-linecap:round;stroke-linejoin:round;stroke-dasharray:none;stroke-opacity:1;paint-order:stroke fill markers"
         d="m 77.636641,-110.95369 c -1.759827,0.1828 -2.79624,0.0495 -3.556904,1.26661 -2.442181,3.90748 3.06432,8.07088 6.080379,5.05662 2.218239,-2.21692 0.613608,-5.83351 -2.523475,-6.32323 z"
         id="path20211"
         sodipodi:nodetypes="cssc" /><path
         style="fill:none;stroke:#000000;stroke-width:2.5;stroke-linecap:round;stroke-linejoin:round;stroke-dasharray:none;stroke-opacity:1;paint-order:stroke fill markers"
         d="m 58.398363,-80.517972 c -1.614204,-4.060511 -4.034692,-6.82294 -6.317837,-10.475973 -3.74757,-5.996111 -13.789446,-1.88184 -13.165046,1.864561 1.684262,10.105572 15.671183,14.558108 19.744897,23.72324"
         id="path20278"
         sodipodi:nodetypes="cssc" /><path
         style="fill:none;stroke:#000000;stroke-width:2.5;stroke-linecap:round;stroke-linejoin:round;stroke-dasharray:none;stroke-opacity:1;paint-order:stroke fill markers"
         d="m 56.766543,-82.367848 c 0.09992,3.527471 -1.351293,6.801784 -2.026021,10.147429"
         id="path20280" /><path
         style="fill:none;stroke:#000000;stroke-width:2.5;stroke-linecap:round;stroke-linejoin:round;stroke-dasharray:none;stroke-opacity:1;paint-order:stroke fill markers"
         d="m 51.43308,-74.580465 c 0.934573,-3.870906 2.608336,-8.125554 2.778711,-12.439486"
         id="path20282"
         sodipodi:nodetypes="cc" /><path
         style="fill:none;stroke:#000000;stroke-width:2.5;stroke-linecap:round;stroke-linejoin:round;stroke-dasharray:none;stroke-opacity:1;paint-order:stroke fill markers"
         d="m 46.593683,-78.146458 c 1.396734,-4.006283 4.669866,-8.062918 4.669866,-12.461079"
         id="path20288" /><path
         style="fill:none;stroke:#000000;stroke-width:2.5;stroke-linecap:round;stroke-linejoin:round;stroke-dasharray:none;stroke-opacity:1;paint-order:stroke fill markers"
         d="m 43.72227,-82.462106 c 0.143817,-4.207721 2.458041,-7.730501 3.861644,-11.473443"
         id="path20290" /><path
         style="fill:none;stroke:#000000;stroke-width:2.5;stroke-linecap:round;stroke-linejoin:round;stroke-dasharray:none;stroke-opacity:1;paint-order:stroke fill markers"
         d="m 39.677112,-89.524041 c 4.010391,-0.897176 9.347736,-0.943604 13.334723,0.04682"
         id="path20292" /><path
         style="fill:none;stroke:#000000;stroke-width:2.5;stroke-linecap:round;stroke-linejoin:round;stroke-dasharray:none;stroke-opacity:1;paint-order:stroke fill markers"
         d="m 43.18811,-81.860301 c 4.720727,0.0106 9.794927,-1.155103 14.235789,-1.703164"
         id="path20294" /><path
         style="fill:none;stroke:#000000;stroke-width:2.5;stroke-linecap:round;stroke-linejoin:round;stroke-dasharray:none;stroke-opacity:1;paint-order:stroke fill markers"
         d="m 49.134681,-76.324506 c 3.407592,-0.630721 5.668891,-0.729823 9.179393,-0.729823"
         id="path20296"
         sodipodi:nodetypes="cc" /></g></g><g
     inkscape:groupmode="layer"
     id="layer3"
     inkscape:label="PATIO"
     style="display:inline"
     transform="translate(8.1110993,149.18684)"><path
       style="fill:none;fill-opacity:1;stroke:#8b0000;stroke-width:5;stroke-linecap:round;stroke-linejoin:round;stroke-dasharray:none;stroke-dashoffset:0;stroke-opacity:1;paint-order:stroke fill markers"
       d="m 109.73712,-121.98474 c -22.561821,-5.67893 -54.501524,-7.41388 -69.703153,11.58145 -37.3802439,46.708824 25.531989,92.95849 72.965973,87.681823 59.17096,-6.582316 49.72002,-96.442523 -8.2236,-89.802033"
       id="path21619"
       sodipodi:nodetypes="cssc" /><path
       style="fill:none;fill-opacity:1;stroke:#8b0000;stroke-width:5;stroke-linecap:round;stroke-linejoin:round;stroke-dasharray:none;stroke-dashoffset:0;stroke-opacity:1;paint-order:stroke fill markers"
       d="m 79.219881,-43.762254 c -1.124434,-8.341382 -1.781866,-16.770318 -3.057632,-25.100907 -0.990214,-6.465969 -5.043236,-23.092149 -1.659165,-29.860292 2.269509,-4.539017 50.487506,6.274377 45.917056,16.557893 -6.41891,14.442536 -33.15805,7.596226 -44.444064,10.170807"
       id="path21984" /><path
       style="fill:none;fill-opacity:1;stroke:#8b0000;stroke-width:5;stroke-linecap:round;stroke-linejoin:round;stroke-dasharray:none;stroke-dashoffset:0;stroke-opacity:1;paint-order:stroke fill markers"
       d="m 20.250016,-146.68684 c 48.400953,45.12029 94.649894,93.332928 145.334914,136.210888"
       id="path23501" /><path
       style="fill:none;fill-opacity:1;stroke:#8b0000;stroke-width:5;stroke-linecap:round;stroke-linejoin:round;stroke-dasharray:none;stroke-dashoffset:0;stroke-opacity:1;paint-order:stroke fill markers"
       d="m 188.31979,-137.3322 c -14.30824,6.53414 -21.57652,10.10322 -35.26709,15.61105 -47.01755,18.91556 -84.378763,45.971028 -125.014201,76.105777 -11.260281,8.350488 -21.6905931,19.842052 -33.6495983,26.693773"
       id="path24229" /></g></svg>
